<?xml version="1.0" encoding="UTF-8" standalone="no"?>
<!DOCTYPE svg PUBLIC "-//W3C//DTD SVG 1.1//EN"
 "http://www.w3.org/Graphics/SVG/1.1/DTD/svg11.dtd">
<!-- Generated by graphviz version 2.47.3 (20210619.1520)
 -->
<!-- Title: dependencies Pages: 1 -->
<svg width="1102pt" height="247pt"
 viewBox="0.00 0.00 1102.00 246.80" xmlns="http://www.w3.org/2000/svg" xmlns:xlink="http://www.w3.org/1999/xlink">
<g id="graph0" class="graph" transform="scale(1 1) rotate(0) translate(4 242.8)">
<title>dependencies</title>
<polygon fill="white" stroke="transparent" points="-4,4 -4,-242.8 1098,-242.8 1098,4 -4,4"/>
<text text-anchor="middle" x="547" y="-8.2" font-family="sans-serif" font-size="14.00">dependencies</text>
<g id="clust1" class="cluster">
<title>cluster_AppModule</title>
<polygon fill="none" stroke="black" stroke-dasharray="1,5" points="8,-32.8 8,-230.8 1086,-230.8 1086,-32.8 8,-32.8"/>
</g>
<g id="clust7" class="cluster">
<title>cluster_AppModule_imports</title>
<polygon fill="none" stroke="black" points="744,-40.8 744,-92.8 1078,-92.8 1078,-40.8 744,-40.8"/>
</g>
<g id="clust9" class="cluster">
<title>cluster_AppModule_bootstrap</title>
<polygon fill="none" stroke="black" points="540,-170.8 540,-222.8 664,-222.8 664,-170.8 540,-170.8"/>
</g>
<g id="clust2" class="cluster">
<title>cluster_AppModule_declarations</title>
<polygon fill="none" stroke="black" points="16,-40.8 16,-92.8 736,-92.8 736,-40.8 16,-40.8"/>
</g>
<!-- AppComponent -->
<g id="node1" class="node">
<title>AppComponent</title>
<polygon fill="#ffffb3" stroke="black" points="727.94,-84.8 622.06,-84.8 622.06,-48.8 727.94,-48.8 727.94,-84.8"/>
<text text-anchor="middle" x="675" y="-62.6" font-family="Times,serif" font-size="14.00">AppComponent</text>
</g>
<!-- AppModule -->
<g id="node5" class="node">
<title>AppModule</title>
<polygon fill="#8dd3c7" stroke="black" points="643.66,-149.8 640.66,-153.8 619.66,-153.8 616.66,-149.8 560.34,-149.8 560.34,-113.8 643.66,-113.8 643.66,-149.8"/>
<text text-anchor="middle" x="602" y="-127.6" font-family="Times,serif" font-size="14.00">AppModule</text>
</g>
<!-- AppComponent&#45;&gt;AppModule -->
<g id="edge1" class="edge">
<title>AppComponent&#45;&gt;AppModule</title>
<path fill="none" stroke="black" d="M633.05,-84.91C633.05,-84.91 633.05,-103.79 633.05,-103.79"/>
<polygon fill="black" stroke="black" points="629.55,-103.79 633.05,-113.79 636.55,-103.79 629.55,-103.79"/>
</g>
<!-- MainScreenComponent -->
<g id="node2" class="node">
<title>MainScreenComponent</title>
<polygon fill="#ffffb3" stroke="black" points="604.47,-84.8 455.53,-84.8 455.53,-48.8 604.47,-48.8 604.47,-84.8"/>
<text text-anchor="middle" x="530" y="-62.6" font-family="Times,serif" font-size="14.00">MainScreenComponent</text>
</g>
<!-- MainScreenComponent&#45;&gt;AppModule -->
<g id="edge2" class="edge">
<title>MainScreenComponent&#45;&gt;AppModule</title>
<path fill="none" stroke="black" d="M582.33,-84.91C582.33,-84.91 582.33,-103.79 582.33,-103.79"/>
<polygon fill="black" stroke="black" points="578.83,-103.79 582.33,-113.79 585.83,-103.79 578.83,-103.79"/>
</g>
<!-- PageNotFoundComponent -->
<g id="node3" class="node">
<title>PageNotFoundComponent</title>
<polygon fill="#ffffb3" stroke="black" points="437.82,-84.8 272.18,-84.8 272.18,-48.8 437.82,-48.8 437.82,-84.8"/>
<text text-anchor="middle" x="355" y="-62.6" font-family="Times,serif" font-size="14.00">PageNotFoundComponent</text>
</g>
<!-- PageNotFoundComponent&#45;&gt;AppModule -->
<g id="edge3" class="edge">
<title>PageNotFoundComponent&#45;&gt;AppModule</title>
<path fill="none" stroke="black" d="M355,-84.82C355,-102.17 355,-125.8 355,-125.8 355,-125.8 550.1,-125.8 550.1,-125.8"/>
<polygon fill="black" stroke="black" points="550.1,-129.3 560.1,-125.8 550.1,-122.3 550.1,-129.3"/>
</g>
<!-- SelectionSelfServiceStandComponent -->
<g id="node4" class="node">
<title>SelectionSelfServiceStandComponent</title>
<polygon fill="#ffffb3" stroke="black" points="253.84,-84.8 24.16,-84.8 24.16,-48.8 253.84,-48.8 253.84,-84.8"/>
<text text-anchor="middle" x="139" y="-62.6" font-family="Times,serif" font-size="14.00">SelectionSelfServiceStandComponent</text>
</g>
<!-- SelectionSelfServiceStandComponent&#45;&gt;AppModule -->
<g id="edge4" class="edge">
<title>SelectionSelfServiceStandComponent&#45;&gt;AppModule</title>
<path fill="none" stroke="black" d="M139,-85.08C139,-106.12 139,-137.8 139,-137.8 139,-137.8 550.1,-137.8 550.1,-137.8"/>
<polygon fill="black" stroke="black" points="550.1,-141.3 560.1,-137.8 550.1,-134.3 550.1,-141.3"/>
</g>
<!-- AppComponent  -->
<g id="node8" class="node">
<title>AppComponent </title>
<polygon fill="#80b1d3" stroke="black" points="656.44,-214.8 547.56,-214.8 547.56,-178.8 656.44,-178.8 656.44,-214.8"/>
<text text-anchor="middle" x="602" y="-192.6" font-family="Times,serif" font-size="14.00">AppComponent </text>
</g>
<!-- AppModule&#45;&gt;AppComponent  -->
<g id="edge7" class="edge">
<title>AppModule&#45;&gt;AppComponent </title>
<path fill="none" stroke="black" stroke-dasharray="1,5" d="M602,-149.91C602,-149.91 602,-168.79 602,-168.79"/>
<polygon fill="black" stroke="black" points="598.5,-168.79 602,-178.79 605.5,-168.79 598.5,-168.79"/>
</g>
<!-- AppRoutingModuleModule -->
<g id="node6" class="node">
<title>AppRoutingModuleModule</title>
<polygon fill="#8dd3c7" stroke="black" points="1070.32,-84.8 1067.32,-88.8 1046.32,-88.8 1043.32,-84.8 897.68,-84.8 897.68,-48.8 1070.32,-48.8 1070.32,-84.8"/>
<text text-anchor="middle" x="984" y="-62.6" font-family="Times,serif" font-size="14.00">AppRoutingModuleModule</text>
</g>
<!-- AppRoutingModuleModule&#45;&gt;AppModule -->
<g id="edge5" class="edge">
<title>AppRoutingModuleModule&#45;&gt;AppModule</title>
<path fill="none" stroke="black" d="M984,-85.08C984,-106.12 984,-137.8 984,-137.8 984,-137.8 653.97,-137.8 653.97,-137.8"/>
<polygon fill="black" stroke="black" points="653.97,-134.3 643.97,-137.8 653.97,-141.3 653.97,-134.3"/>
</g>
<!-- MainScreenModule -->
<g id="node7" class="node">
<title>MainScreenModule</title>
<polygon fill="#8dd3c7" stroke="black" points="879.69,-84.8 876.69,-88.8 855.69,-88.8 852.69,-84.8 752.31,-84.8 752.31,-48.8 879.69,-48.8 879.69,-84.8"/>
<text text-anchor="middle" x="816" y="-62.6" font-family="Times,serif" font-size="14.00">MainScreenModule</text>
</g>
<!-- MainScreenModule&#45;&gt;AppModule -->
<g id="edge6" class="edge">
<title>MainScreenModule&#45;&gt;AppModule</title>
<path fill="none" stroke="black" d="M816,-84.82C816,-102.17 816,-125.8 816,-125.8 816,-125.8 653.77,-125.8 653.77,-125.8"/>
<polygon fill="black" stroke="black" points="653.77,-122.3 643.77,-125.8 653.77,-129.3 653.77,-122.3"/>
</g>
</g>
</svg>
