<?xml version="1.0" encoding="UTF-8" standalone="no"?>
<!DOCTYPE svg PUBLIC "-//W3C//DTD SVG 1.1//EN"
 "http://www.w3.org/Graphics/SVG/1.1/DTD/svg11.dtd">
<!-- Generated by graphviz version 2.47.3 (20210619.1520)
 -->
<!-- Title: dependencies Pages: 1 -->
<svg width="6785pt" height="323pt"
 viewBox="0.00 0.00 6785.00 322.80" xmlns="http://www.w3.org/2000/svg" xmlns:xlink="http://www.w3.org/1999/xlink">
<g id="graph0" class="graph" transform="scale(1 1) rotate(0) translate(4 318.8)">
<title>dependencies</title>
<polygon fill="white" stroke="transparent" points="-4,4 -4,-318.8 6781,-318.8 6781,4 -4,4"/>
<text text-anchor="middle" x="3388.5" y="-8.2" font-family="sans-serif" font-size="14.00">dependencies</text>
<g id="clust1" class="cluster">
<title>cluster_AppModule</title>
<polygon fill="none" stroke="black" stroke-dasharray="1,5" points="2486,-108.8 2486,-306.8 3564,-306.8 3564,-108.8 2486,-108.8"/>
</g>
<g id="clust2" class="cluster">
<title>cluster_AppModule_declarations</title>
<polygon fill="none" stroke="black" points="2836,-116.8 2836,-168.8 3556,-168.8 3556,-116.8 2836,-116.8"/>
</g>
<g id="clust7" class="cluster">
<title>cluster_AppModule_imports</title>
<polygon fill="none" stroke="black" points="2494,-116.8 2494,-168.8 2828,-168.8 2828,-116.8 2494,-116.8"/>
</g>
<g id="clust9" class="cluster">
<title>cluster_AppModule_bootstrap</title>
<polygon fill="none" stroke="black" points="3005,-246.8 3005,-298.8 3129,-298.8 3129,-246.8 3005,-246.8"/>
</g>
<g id="clust17" class="cluster">
<title>cluster_LoginAndRegistrationModuleModule</title>
<polygon fill="none" stroke="black" stroke-dasharray="1,5" points="4877,-32.8 4877,-168.8 6769,-168.8 6769,-32.8 4877,-32.8"/>
</g>
<g id="clust18" class="cluster">
<title>cluster_LoginAndRegistrationModuleModule_declarations</title>
<polygon fill="none" stroke="black" points="4885,-40.8 4885,-92.8 6513,-92.8 6513,-40.8 4885,-40.8"/>
</g>
<g id="clust29" class="cluster">
<title>cluster_LoginAndRegistrationModuleModule_imports</title>
<polygon fill="none" stroke="black" points="6521,-40.8 6521,-92.8 6761,-92.8 6761,-40.8 6521,-40.8"/>
</g>
<g id="clust39" class="cluster">
<title>cluster_MainScreenModule</title>
<polygon fill="none" stroke="black" stroke-dasharray="1,5" points="8,-32.8 8,-100.8 4869,-100.8 4869,-32.8 8,-32.8"/>
</g>
<g id="clust40" class="cluster">
<title>cluster_MainScreenModule_declarations</title>
<polygon fill="none" stroke="black" points="639,-40.8 639,-92.8 4861,-92.8 4861,-40.8 639,-40.8"/>
</g>
<g id="clust68" class="cluster">
<title>cluster_MainScreenModule_imports</title>
<polygon fill="none" stroke="black" points="449,-40.8 449,-92.8 631,-92.8 631,-40.8 449,-40.8"/>
</g>
<g id="clust69" class="cluster">
<title>cluster_MainScreenModule_exports</title>
<polygon fill="none" stroke="black" points="16,-40.8 16,-92.8 441,-92.8 441,-40.8 16,-40.8"/>
</g>
<!-- AppComponent -->
<g id="node1" class="node">
<title>AppComponent</title>
<polygon fill="#ffffb3" stroke="black" points="3547.94,-160.8 3442.06,-160.8 3442.06,-124.8 3547.94,-124.8 3547.94,-160.8"/>
<text text-anchor="middle" x="3495" y="-138.6" font-family="Times,serif" font-size="14.00">AppComponent</text>
</g>
<!-- AppModule -->
<g id="node5" class="node">
<title>AppModule</title>
<polygon fill="#8dd3c7" stroke="black" points="3108.66,-225.8 3105.66,-229.8 3084.66,-229.8 3081.66,-225.8 3025.34,-225.8 3025.34,-189.8 3108.66,-189.8 3108.66,-225.8"/>
<text text-anchor="middle" x="3067" y="-203.6" font-family="Times,serif" font-size="14.00">AppModule</text>
</g>
<!-- AppComponent&#45;&gt;AppModule -->
<g id="edge1" class="edge">
<title>AppComponent&#45;&gt;AppModule</title>
<path fill="none" stroke="black" d="M3495,-161.08C3495,-182.12 3495,-213.8 3495,-213.8 3495,-213.8 3118.82,-213.8 3118.82,-213.8"/>
<polygon fill="black" stroke="black" points="3118.82,-210.3 3108.82,-213.8 3118.82,-217.3 3118.82,-210.3"/>
</g>
<!-- MainScreenComponent -->
<g id="node2" class="node">
<title>MainScreenComponent</title>
<polygon fill="#ffffb3" stroke="black" points="3424.47,-160.8 3275.53,-160.8 3275.53,-124.8 3424.47,-124.8 3424.47,-160.8"/>
<text text-anchor="middle" x="3350" y="-138.6" font-family="Times,serif" font-size="14.00">MainScreenComponent</text>
</g>
<!-- MainScreenComponent&#45;&gt;AppModule -->
<g id="edge2" class="edge">
<title>MainScreenComponent&#45;&gt;AppModule</title>
<path fill="none" stroke="black" d="M3350,-160.82C3350,-178.17 3350,-201.8 3350,-201.8 3350,-201.8 3118.76,-201.8 3118.76,-201.8"/>
<polygon fill="black" stroke="black" points="3118.76,-198.3 3108.76,-201.8 3118.76,-205.3 3118.76,-198.3"/>
</g>
<!-- PageNotFoundComponent -->
<g id="node3" class="node">
<title>PageNotFoundComponent</title>
<polygon fill="#ffffb3" stroke="black" points="3257.82,-160.8 3092.18,-160.8 3092.18,-124.8 3257.82,-124.8 3257.82,-160.8"/>
<text text-anchor="middle" x="3175" y="-138.6" font-family="Times,serif" font-size="14.00">PageNotFoundComponent</text>
</g>
<!-- PageNotFoundComponent&#45;&gt;AppModule -->
<g id="edge3" class="edge">
<title>PageNotFoundComponent&#45;&gt;AppModule</title>
<path fill="none" stroke="black" d="M3100.58,-160.91C3100.58,-160.91 3100.58,-179.79 3100.58,-179.79"/>
<polygon fill="black" stroke="black" points="3097.08,-179.79 3100.58,-189.79 3104.08,-179.79 3097.08,-179.79"/>
</g>
<!-- SelectionSelfServiceStandComponent -->
<g id="node4" class="node">
<title>SelectionSelfServiceStandComponent</title>
<polygon fill="#ffffb3" stroke="black" points="3073.84,-160.8 2844.16,-160.8 2844.16,-124.8 3073.84,-124.8 3073.84,-160.8"/>
<text text-anchor="middle" x="2959" y="-138.6" font-family="Times,serif" font-size="14.00">SelectionSelfServiceStandComponent</text>
</g>
<!-- SelectionSelfServiceStandComponent&#45;&gt;AppModule -->
<g id="edge4" class="edge">
<title>SelectionSelfServiceStandComponent&#45;&gt;AppModule</title>
<path fill="none" stroke="black" d="M3049.55,-160.91C3049.55,-160.91 3049.55,-179.79 3049.55,-179.79"/>
<polygon fill="black" stroke="black" points="3046.05,-179.79 3049.55,-189.79 3053.05,-179.79 3046.05,-179.79"/>
</g>
<!-- AppComponent  -->
<g id="node8" class="node">
<title>AppComponent </title>
<polygon fill="#80b1d3" stroke="black" points="3121.44,-290.8 3012.56,-290.8 3012.56,-254.8 3121.44,-254.8 3121.44,-290.8"/>
<text text-anchor="middle" x="3067" y="-268.6" font-family="Times,serif" font-size="14.00">AppComponent </text>
</g>
<!-- AppModule&#45;&gt;AppComponent  -->
<g id="edge7" class="edge">
<title>AppModule&#45;&gt;AppComponent </title>
<path fill="none" stroke="black" stroke-dasharray="1,5" d="M3067,-225.91C3067,-225.91 3067,-244.79 3067,-244.79"/>
<polygon fill="black" stroke="black" points="3063.5,-244.79 3067,-254.79 3070.5,-244.79 3063.5,-244.79"/>
</g>
<!-- AppRoutingModuleModule -->
<g id="node6" class="node">
<title>AppRoutingModuleModule</title>
<polygon fill="#8dd3c7" stroke="black" points="2820.32,-160.8 2817.32,-164.8 2796.32,-164.8 2793.32,-160.8 2647.68,-160.8 2647.68,-124.8 2820.32,-124.8 2820.32,-160.8"/>
<text text-anchor="middle" x="2734" y="-138.6" font-family="Times,serif" font-size="14.00">AppRoutingModuleModule</text>
</g>
<!-- AppRoutingModuleModule&#45;&gt;AppModule -->
<g id="edge5" class="edge">
<title>AppRoutingModuleModule&#45;&gt;AppModule</title>
<path fill="none" stroke="black" d="M2734,-160.82C2734,-178.17 2734,-201.8 2734,-201.8 2734,-201.8 3015.16,-201.8 3015.16,-201.8"/>
<polygon fill="black" stroke="black" points="3015.16,-205.3 3025.16,-201.8 3015.16,-198.3 3015.16,-205.3"/>
</g>
<!-- MainScreenModule -->
<g id="node7" class="node">
<title>MainScreenModule</title>
<polygon fill="#8dd3c7" stroke="black" points="2629.69,-160.8 2626.69,-164.8 2605.69,-164.8 2602.69,-160.8 2502.31,-160.8 2502.31,-124.8 2629.69,-124.8 2629.69,-160.8"/>
<text text-anchor="middle" x="2566" y="-138.6" font-family="Times,serif" font-size="14.00">MainScreenModule</text>
</g>
<!-- MainScreenModule&#45;&gt;AppModule -->
<g id="edge6" class="edge">
<title>MainScreenModule&#45;&gt;AppModule</title>
<path fill="none" stroke="black" d="M2566,-161.08C2566,-182.12 2566,-213.8 2566,-213.8 2566,-213.8 3015.15,-213.8 3015.15,-213.8"/>
<polygon fill="black" stroke="black" points="3015.15,-217.3 3025.15,-213.8 3015.15,-210.3 3015.15,-217.3"/>
</g>
<!-- FooterComponent  -->
<g id="node48" class="node">
<title>FooterComponent </title>
<polygon fill="#fb8072" stroke="black" points="432.88,-84.8 311.12,-84.8 311.12,-48.8 432.88,-48.8 432.88,-84.8"/>
<text text-anchor="middle" x="372" y="-62.6" font-family="Times,serif" font-size="14.00">FooterComponent </text>
</g>
<!-- MainScreenModule&#45;&gt;FooterComponent  -->
<g id="edge47" class="edge">
<title>MainScreenModule&#45;&gt;FooterComponent </title>
<path fill="none" stroke="black" stroke-dasharray="5,2" d="M2502.12,-154.8C2141.05,-154.8 372,-154.8 372,-154.8 372,-154.8 372,-95.03 372,-95.03"/>
<polygon fill="black" stroke="black" points="375.5,-95.03 372,-85.03 368.5,-95.03 375.5,-95.03"/>
</g>
<!-- LogoutComponent  -->
<g id="node49" class="node">
<title>LogoutComponent </title>
<polygon fill="#fb8072" stroke="black" points="293.78,-84.8 168.22,-84.8 168.22,-48.8 293.78,-48.8 293.78,-84.8"/>
<text text-anchor="middle" x="231" y="-62.6" font-family="Times,serif" font-size="14.00">LogoutComponent </text>
</g>
<!-- MainScreenModule&#45;&gt;LogoutComponent  -->
<g id="edge48" class="edge">
<title>MainScreenModule&#45;&gt;LogoutComponent </title>
<path fill="none" stroke="black" stroke-dasharray="5,2" d="M2502.33,-156.8C2128.1,-156.8 231,-156.8 231,-156.8 231,-156.8 231,-95.01 231,-95.01"/>
<polygon fill="black" stroke="black" points="234.5,-95.01 231,-85.01 227.5,-95.01 234.5,-95.01"/>
</g>
<!-- NavbarComponent  -->
<g id="node50" class="node">
<title>NavbarComponent </title>
<polygon fill="#fb8072" stroke="black" points="150.03,-84.8 23.97,-84.8 23.97,-48.8 150.03,-48.8 150.03,-84.8"/>
<text text-anchor="middle" x="87" y="-62.6" font-family="Times,serif" font-size="14.00">NavbarComponent </text>
</g>
<!-- MainScreenModule&#45;&gt;NavbarComponent  -->
<g id="edge49" class="edge">
<title>MainScreenModule&#45;&gt;NavbarComponent </title>
<path fill="none" stroke="black" stroke-dasharray="5,2" d="M2502.23,-158.8C2114.21,-158.8 87,-158.8 87,-158.8 87,-158.8 87,-94.98 87,-94.98"/>
<polygon fill="black" stroke="black" points="90.5,-94.98 87,-84.98 83.5,-94.98 90.5,-94.98"/>
</g>
<!-- ContactComponent -->
<g id="node9" class="node">
<title>ContactComponent</title>
<polygon fill="#ffffb3" stroke="black" points="6307.38,-84.8 6182.62,-84.8 6182.62,-48.8 6307.38,-48.8 6307.38,-84.8"/>
<text text-anchor="middle" x="6245" y="-62.6" font-family="Times,serif" font-size="14.00">ContactComponent</text>
</g>
<!-- LoginAndRegistrationModuleModule -->
<g id="node19" class="node">
<title>LoginAndRegistrationModuleModule</title>
<polygon fill="#8dd3c7" stroke="black" points="5905.58,-160.8 5902.58,-164.8 5881.58,-164.8 5878.58,-160.8 5676.42,-160.8 5676.42,-124.8 5905.58,-124.8 5905.58,-160.8"/>
<text text-anchor="middle" x="5791" y="-138.6" font-family="Times,serif" font-size="14.00">LoginAndRegistrationModuleModule</text>
</g>
<!-- ContactComponent&#45;&gt;LoginAndRegistrationModuleModule -->
<g id="edge8" class="edge">
<title>ContactComponent&#45;&gt;LoginAndRegistrationModuleModule</title>
<path fill="none" stroke="black" d="M6245,-84.84C6245,-106.46 6245,-139.8 6245,-139.8 6245,-139.8 5915.56,-139.8 5915.56,-139.8"/>
<polygon fill="black" stroke="black" points="5915.56,-136.3 5905.56,-139.8 5915.56,-143.3 5915.56,-136.3"/>
</g>
<!-- DataProtectionComponent -->
<g id="node10" class="node">
<title>DataProtectionComponent</title>
<polygon fill="#ffffb3" stroke="black" points="6164.8,-84.8 5999.2,-84.8 5999.2,-48.8 6164.8,-48.8 6164.8,-84.8"/>
<text text-anchor="middle" x="6082" y="-62.6" font-family="Times,serif" font-size="14.00">DataProtectionComponent</text>
</g>
<!-- DataProtectionComponent&#45;&gt;LoginAndRegistrationModuleModule -->
<g id="edge9" class="edge">
<title>DataProtectionComponent&#45;&gt;LoginAndRegistrationModuleModule</title>
<path fill="none" stroke="black" d="M6082,-84.83C6082,-104.38 6082,-132.8 6082,-132.8 6082,-132.8 5915.59,-132.8 5915.59,-132.8"/>
<polygon fill="black" stroke="black" points="5915.59,-129.3 5905.59,-132.8 5915.59,-136.3 5915.59,-129.3"/>
</g>
<!-- FooterComponent -->
<g id="node11" class="node">
<title>FooterComponent</title>
<polygon fill="#ffffb3" stroke="black" points="5010.88,-84.8 4893.12,-84.8 4893.12,-48.8 5010.88,-48.8 5010.88,-84.8"/>
<text text-anchor="middle" x="4952" y="-62.6" font-family="Times,serif" font-size="14.00">FooterComponent</text>
</g>
<!-- FooterComponent&#45;&gt;MainScreenModule -->
<g id="edge26" class="edge">
<title>FooterComponent&#45;&gt;MainScreenModule</title>
<path fill="none" stroke="black" d="M4932.35,-84.83C4932.35,-101.2 4932.35,-122.8 4932.35,-122.8 4932.35,-122.8 2622.11,-122.8 2622.11,-122.8 2622.11,-122.8 2622.11,-122.98 2622.11,-122.98"/>
<polygon fill="black" stroke="black" points="2618.61,-114.65 2622.11,-124.65 2625.61,-114.65 2618.61,-114.65"/>
</g>
<!-- FooterComponent&#45;&gt;LoginAndRegistrationModuleModule -->
<g id="edge10" class="edge">
<title>FooterComponent&#45;&gt;LoginAndRegistrationModuleModule</title>
<path fill="none" stroke="black" d="M4971.65,-84.83C4971.65,-110.31 4971.65,-153.8 4971.65,-153.8 4971.65,-153.8 5666.21,-153.8 5666.21,-153.8"/>
<polygon fill="black" stroke="black" points="5666.21,-157.3 5676.21,-153.8 5666.21,-150.3 5666.21,-157.3"/>
</g>
<!-- FormComponent -->
<g id="node12" class="node">
<title>FormComponent</title>
<polygon fill="#ffffb3" stroke="black" points="5981.67,-84.8 5870.33,-84.8 5870.33,-48.8 5981.67,-48.8 5981.67,-84.8"/>
<text text-anchor="middle" x="5926" y="-62.6" font-family="Times,serif" font-size="14.00">FormComponent</text>
</g>
<!-- FormComponent&#45;&gt;LoginAndRegistrationModuleModule -->
<g id="edge11" class="edge">
<title>FormComponent&#45;&gt;LoginAndRegistrationModuleModule</title>
<path fill="none" stroke="black" d="M5887.85,-84.81C5887.85,-84.81 5887.85,-114.65 5887.85,-114.65"/>
<polygon fill="black" stroke="black" points="5884.35,-114.65 5887.85,-124.65 5891.35,-114.65 5884.35,-114.65"/>
</g>
<!-- ImprintComponent -->
<g id="node13" class="node">
<title>ImprintComponent</title>
<polygon fill="#ffffb3" stroke="black" points="5852.83,-84.8 5729.17,-84.8 5729.17,-48.8 5852.83,-48.8 5852.83,-84.8"/>
<text text-anchor="middle" x="5791" y="-62.6" font-family="Times,serif" font-size="14.00">ImprintComponent</text>
</g>
<!-- ImprintComponent&#45;&gt;LoginAndRegistrationModuleModule -->
<g id="edge12" class="edge">
<title>ImprintComponent&#45;&gt;LoginAndRegistrationModuleModule</title>
<path fill="none" stroke="black" d="M5791,-84.81C5791,-84.81 5791,-114.65 5791,-114.65"/>
<polygon fill="black" stroke="black" points="5787.5,-114.65 5791,-124.65 5794.5,-114.65 5787.5,-114.65"/>
</g>
<!-- LoginAndRegistrationComponent -->
<g id="node14" class="node">
<title>LoginAndRegistrationComponent</title>
<polygon fill="#ffffb3" stroke="black" points="5711.82,-84.8 5504.18,-84.8 5504.18,-48.8 5711.82,-48.8 5711.82,-84.8"/>
<text text-anchor="middle" x="5608" y="-62.6" font-family="Times,serif" font-size="14.00">LoginAndRegistrationComponent</text>
</g>
<!-- LoginAndRegistrationComponent&#45;&gt;LoginAndRegistrationModuleModule -->
<g id="edge13" class="edge">
<title>LoginAndRegistrationComponent&#45;&gt;LoginAndRegistrationModuleModule</title>
<path fill="none" stroke="black" d="M5694.06,-84.81C5694.06,-84.81 5694.06,-114.65 5694.06,-114.65"/>
<polygon fill="black" stroke="black" points="5690.56,-114.65 5694.06,-124.65 5697.56,-114.65 5690.56,-114.65"/>
</g>
<!-- LoginFormComponent -->
<g id="node15" class="node">
<title>LoginFormComponent</title>
<polygon fill="#ffffb3" stroke="black" points="5486.61,-84.8 5341.39,-84.8 5341.39,-48.8 5486.61,-48.8 5486.61,-84.8"/>
<text text-anchor="middle" x="5414" y="-62.6" font-family="Times,serif" font-size="14.00">LoginFormComponent</text>
</g>
<!-- LoginFormComponent&#45;&gt;LoginAndRegistrationModuleModule -->
<g id="edge14" class="edge">
<title>LoginFormComponent&#45;&gt;LoginAndRegistrationModuleModule</title>
<path fill="none" stroke="black" d="M5414,-84.83C5414,-104.38 5414,-132.8 5414,-132.8 5414,-132.8 5666.35,-132.8 5666.35,-132.8"/>
<polygon fill="black" stroke="black" points="5666.35,-136.3 5676.35,-132.8 5666.35,-129.3 5666.35,-136.3"/>
</g>
<!-- LogoComponent -->
<g id="node16" class="node">
<title>LogoComponent</title>
<polygon fill="#ffffb3" stroke="black" points="5323.39,-84.8 5212.61,-84.8 5212.61,-48.8 5323.39,-48.8 5323.39,-84.8"/>
<text text-anchor="middle" x="5268" y="-62.6" font-family="Times,serif" font-size="14.00">LogoComponent</text>
</g>
<!-- LogoComponent&#45;&gt;LoginAndRegistrationModuleModule -->
<g id="edge15" class="edge">
<title>LogoComponent&#45;&gt;LoginAndRegistrationModuleModule</title>
<path fill="none" stroke="black" d="M5268,-84.84C5268,-106.46 5268,-139.8 5268,-139.8 5268,-139.8 5666.23,-139.8 5666.23,-139.8"/>
<polygon fill="black" stroke="black" points="5666.23,-143.3 5676.23,-139.8 5666.23,-136.3 5666.23,-143.3"/>
</g>
<!-- PasswordResetComponent -->
<g id="node17" class="node">
<title>PasswordResetComponent</title>
<polygon fill="#ffffb3" stroke="black" points="5195.09,-84.8 5028.91,-84.8 5028.91,-48.8 5195.09,-48.8 5195.09,-84.8"/>
<text text-anchor="middle" x="5112" y="-62.6" font-family="Times,serif" font-size="14.00">PasswordResetComponent</text>
</g>
<!-- PasswordResetComponent&#45;&gt;LoginAndRegistrationModuleModule -->
<g id="edge16" class="edge">
<title>PasswordResetComponent&#45;&gt;LoginAndRegistrationModuleModule</title>
<path fill="none" stroke="black" d="M5112,-84.95C5112,-108.56 5112,-146.8 5112,-146.8 5112,-146.8 5666.2,-146.8 5666.2,-146.8"/>
<polygon fill="black" stroke="black" points="5666.2,-150.3 5676.2,-146.8 5666.2,-143.3 5666.2,-150.3"/>
</g>
<!-- RegistrationFormComponent -->
<g id="node18" class="node">
<title>RegistrationFormComponent</title>
<polygon fill="#ffffb3" stroke="black" points="6505.1,-84.8 6324.9,-84.8 6324.9,-48.8 6505.1,-48.8 6505.1,-84.8"/>
<text text-anchor="middle" x="6415" y="-62.6" font-family="Times,serif" font-size="14.00">RegistrationFormComponent</text>
</g>
<!-- RegistrationFormComponent&#45;&gt;LoginAndRegistrationModuleModule -->
<g id="edge17" class="edge">
<title>RegistrationFormComponent&#45;&gt;LoginAndRegistrationModuleModule</title>
<path fill="none" stroke="black" d="M6415,-84.95C6415,-108.56 6415,-146.8 6415,-146.8 6415,-146.8 5915.81,-146.8 5915.81,-146.8"/>
<polygon fill="black" stroke="black" points="5915.81,-143.3 5905.81,-146.8 5915.81,-150.3 5915.81,-143.3"/>
</g>
<!-- LoginAndRegistrationRoutesModule -->
<g id="node20" class="node">
<title>LoginAndRegistrationRoutesModule</title>
<polygon fill="#8dd3c7" stroke="black" points="6753.42,-84.8 6750.42,-88.8 6729.42,-88.8 6726.42,-84.8 6528.58,-84.8 6528.58,-48.8 6753.42,-48.8 6753.42,-84.8"/>
<text text-anchor="middle" x="6641" y="-62.6" font-family="Times,serif" font-size="14.00">LoginAndRegistrationRoutesModule</text>
</g>
<!-- LoginAndRegistrationRoutesModule&#45;&gt;LoginAndRegistrationModuleModule -->
<g id="edge18" class="edge">
<title>LoginAndRegistrationRoutesModule&#45;&gt;LoginAndRegistrationModuleModule</title>
<path fill="none" stroke="black" d="M6641,-84.83C6641,-110.31 6641,-153.8 6641,-153.8 6641,-153.8 5915.63,-153.8 5915.63,-153.8"/>
<polygon fill="black" stroke="black" points="5915.63,-150.3 5905.63,-153.8 5915.63,-157.3 5915.63,-150.3"/>
</g>
<!-- AddUserSelfComponent -->
<g id="node21" class="node">
<title>AddUserSelfComponent</title>
<polygon fill="#ffffb3" stroke="black" points="4853.41,-84.8 4698.59,-84.8 4698.59,-48.8 4853.41,-48.8 4853.41,-84.8"/>
<text text-anchor="middle" x="4776" y="-62.6" font-family="Times,serif" font-size="14.00">AddUserSelfComponent</text>
</g>
<!-- AddUserSelfComponent&#45;&gt;MainScreenModule -->
<g id="edge19" class="edge">
<title>AddUserSelfComponent&#45;&gt;MainScreenModule</title>
<path fill="none" stroke="black" d="M4776,-85.04C4776,-100.37 4776,-119.8 4776,-119.8 4776,-119.8 2614.63,-119.8 2614.63,-119.8 2614.63,-119.8 2614.63,-120.29 2614.63,-120.29"/>
<polygon fill="black" stroke="black" points="2611.13,-114.68 2614.63,-124.68 2618.13,-114.68 2611.13,-114.68"/>
</g>
<!-- ChangeGoodsComponent -->
<g id="node22" class="node">
<title>ChangeGoodsComponent</title>
<polygon fill="#ffffb3" stroke="black" points="4680.15,-84.8 4519.85,-84.8 4519.85,-48.8 4680.15,-48.8 4680.15,-84.8"/>
<text text-anchor="middle" x="4600" y="-62.6" font-family="Times,serif" font-size="14.00">ChangeGoodsComponent</text>
</g>
<!-- ChangeGoodsComponent&#45;&gt;MainScreenModule -->
<g id="edge20" class="edge">
<title>ChangeGoodsComponent&#45;&gt;MainScreenModule</title>
<path fill="none" stroke="black" d="M4600,-84.92C4600,-99.58 4600,-117.8 4600,-117.8 4600,-117.8 2607.15,-117.8 2607.15,-117.8 2607.15,-117.8 2607.15,-118.48 2607.15,-118.48"/>
<polygon fill="black" stroke="black" points="2603.65,-114.63 2607.15,-124.63 2610.65,-114.63 2603.65,-114.63"/>
</g>
<!-- ChangeSelfComponent -->
<g id="node23" class="node">
<title>ChangeSelfComponent</title>
<polygon fill="#ffffb3" stroke="black" points="4501.15,-84.8 4354.85,-84.8 4354.85,-48.8 4501.15,-48.8 4501.15,-84.8"/>
<text text-anchor="middle" x="4428" y="-62.6" font-family="Times,serif" font-size="14.00">ChangeSelfComponent</text>
</g>
<!-- ChangeSelfComponent&#45;&gt;MainScreenModule -->
<g id="edge21" class="edge">
<title>ChangeSelfComponent&#45;&gt;MainScreenModule</title>
<path fill="none" stroke="black" d="M4428,-84.95C4428,-98.54 4428,-114.8 4428,-114.8 4428,-114.8 2599.67,-114.8 2599.67,-114.8 2599.67,-114.8 2599.67,-115.78 2599.67,-115.78"/>
<polygon fill="black" stroke="black" points="2596.17,-114.59 2599.67,-124.59 2603.17,-114.59 2596.17,-114.59"/>
</g>
<!-- ChangeUserComponent -->
<g id="node24" class="node">
<title>ChangeUserComponent</title>
<polygon fill="#ffffb3" stroke="black" points="4336.03,-84.8 4185.97,-84.8 4185.97,-48.8 4336.03,-48.8 4336.03,-84.8"/>
<text text-anchor="middle" x="4261" y="-62.6" font-family="Times,serif" font-size="14.00">ChangeUserComponent</text>
</g>
<!-- ChangeUserComponent&#45;&gt;MainScreenModule -->
<g id="edge22" class="edge">
<title>ChangeUserComponent&#45;&gt;MainScreenModule</title>
<path fill="none" stroke="black" d="M4261,-84.98C4261,-97.84 4261,-112.8 4261,-112.8 4261,-112.8 2592.19,-112.8 2592.19,-112.8 2592.19,-112.8 2592.19,-114.66 2592.19,-114.66"/>
<polygon fill="black" stroke="black" points="2588.69,-114.66 2592.19,-124.66 2595.69,-114.66 2588.69,-114.66"/>
</g>
<!-- CreateUserComponent -->
<g id="node25" class="node">
<title>CreateUserComponent</title>
<polygon fill="#ffffb3" stroke="black" points="4168.29,-84.8 4023.71,-84.8 4023.71,-48.8 4168.29,-48.8 4168.29,-84.8"/>
<text text-anchor="middle" x="4096" y="-62.6" font-family="Times,serif" font-size="14.00">CreateUserComponent</text>
</g>
<!-- CreateUserComponent&#45;&gt;MainScreenModule -->
<g id="edge23" class="edge">
<title>CreateUserComponent&#45;&gt;MainScreenModule</title>
<path fill="none" stroke="black" d="M4096,-85.29C4096,-96.94 4096,-109.8 4096,-109.8 4096,-109.8 2584.7,-109.8 2584.7,-109.8 2584.7,-109.8 2584.7,-114.76 2584.7,-114.76"/>
<polygon fill="black" stroke="black" points="2581.2,-114.76 2584.7,-124.76 2588.2,-114.76 2581.2,-114.76"/>
</g>
<!-- EndOfDayComponent -->
<g id="node26" class="node">
<title>EndOfDayComponent</title>
<polygon fill="#ffffb3" stroke="black" points="4005.97,-84.8 3864.03,-84.8 3864.03,-48.8 4005.97,-48.8 4005.97,-84.8"/>
<text text-anchor="middle" x="3935" y="-62.6" font-family="Times,serif" font-size="14.00">EndOfDayComponent</text>
</g>
<!-- EndOfDayComponent&#45;&gt;MainScreenModule -->
<g id="edge24" class="edge">
<title>EndOfDayComponent&#45;&gt;MainScreenModule</title>
<path fill="none" stroke="black" d="M3935,-84.9C3935,-95.89 3935,-107.8 3935,-107.8 3935,-107.8 2577.22,-107.8 2577.22,-107.8 2577.22,-107.8 2577.22,-114.48 2577.22,-114.48"/>
<polygon fill="black" stroke="black" points="2573.72,-114.48 2577.22,-124.48 2580.72,-114.48 2573.72,-114.48"/>
</g>
<!-- EndOfDayPdfComponent -->
<g id="node27" class="node">
<title>EndOfDayPdfComponent</title>
<polygon fill="#ffffb3" stroke="black" points="3845.92,-84.8 3684.08,-84.8 3684.08,-48.8 3845.92,-48.8 3845.92,-84.8"/>
<text text-anchor="middle" x="3765" y="-62.6" font-family="Times,serif" font-size="14.00">EndOfDayPdfComponent</text>
</g>
<!-- EndOfDayPdfComponent&#45;&gt;MainScreenModule -->
<g id="edge25" class="edge">
<title>EndOfDayPdfComponent&#45;&gt;MainScreenModule</title>
<path fill="none" stroke="black" d="M3765,-84.91C3765,-94.7 3765,-104.8 3765,-104.8 3765,-104.8 2569.74,-104.8 2569.74,-104.8 2569.74,-104.8 2569.74,-114.69 2569.74,-114.69"/>
<polygon fill="black" stroke="black" points="2566.24,-114.69 2569.74,-124.69 2573.24,-114.69 2566.24,-114.69"/>
</g>
<!-- GoodsComponent -->
<g id="node28" class="node">
<title>GoodsComponent</title>
<polygon fill="#ffffb3" stroke="black" points="3665.88,-84.8 3548.12,-84.8 3548.12,-48.8 3665.88,-48.8 3665.88,-84.8"/>
<text text-anchor="middle" x="3607" y="-62.6" font-family="Times,serif" font-size="14.00">GoodsComponent</text>
</g>
<!-- GoodsComponent&#45;&gt;MainScreenModule -->
<g id="edge27" class="edge">
<title>GoodsComponent&#45;&gt;MainScreenModule</title>
<path fill="none" stroke="black" d="M3607,-85.22C3607,-94.08 3607,-102.8 3607,-102.8 3607,-102.8 2562.26,-102.8 2562.26,-102.8 2562.26,-102.8 2562.26,-114.67 2562.26,-114.67"/>
<polygon fill="black" stroke="black" points="2558.76,-114.67 2562.26,-124.67 2565.76,-114.67 2558.76,-114.67"/>
</g>
<!-- LogoutComponent -->
<g id="node29" class="node">
<title>LogoutComponent</title>
<polygon fill="#ffffb3" stroke="black" points="3529.78,-84.8 3408.22,-84.8 3408.22,-48.8 3529.78,-48.8 3529.78,-84.8"/>
<text text-anchor="middle" x="3469" y="-62.6" font-family="Times,serif" font-size="14.00">LogoutComponent</text>
</g>
<!-- LogoutComponent&#45;&gt;MainScreenModule -->
<g id="edge28" class="edge">
<title>LogoutComponent&#45;&gt;MainScreenModule</title>
<path fill="none" stroke="black" d="M3416.3,-84.84C3416.3,-92.55 3416.3,-99.8 3416.3,-99.8 3416.3,-99.8 2554.78,-99.8 2554.78,-99.8 2554.78,-99.8 2554.78,-114.31 2554.78,-114.31"/>
<polygon fill="black" stroke="black" points="2551.28,-114.31 2554.78,-124.31 2558.28,-114.31 2551.28,-114.31"/>
</g>
<!-- MainMenuComponent -->
<g id="node30" class="node">
<title>MainMenuComponent</title>
<polygon fill="#ffffb3" stroke="black" points="3389.54,-84.8 3246.46,-84.8 3246.46,-48.8 3389.54,-48.8 3389.54,-84.8"/>
<text text-anchor="middle" x="3318" y="-62.6" font-family="Times,serif" font-size="14.00">MainMenuComponent</text>
</g>
<!-- MainMenuComponent&#45;&gt;MainScreenModule -->
<g id="edge29" class="edge">
<title>MainMenuComponent&#45;&gt;MainScreenModule</title>
<path fill="none" stroke="black" d="M3251.95,-84.83C3251.95,-91.65 3251.95,-97.8 3251.95,-97.8 3251.95,-97.8 2547.3,-97.8 2547.3,-97.8 2547.3,-97.8 2547.3,-114.76 2547.3,-114.76"/>
<polygon fill="black" stroke="black" points="2543.8,-114.76 2547.3,-124.76 2550.8,-114.76 2543.8,-114.76"/>
</g>
<!-- MonthComponent -->
<g id="node31" class="node">
<title>MonthComponent</title>
<polygon fill="#ffffb3" stroke="black" points="3228.17,-84.8 3109.83,-84.8 3109.83,-48.8 3228.17,-48.8 3228.17,-84.8"/>
<text text-anchor="middle" x="3169" y="-62.6" font-family="Times,serif" font-size="14.00">MonthComponent</text>
</g>
<!-- MonthComponent&#45;&gt;MainScreenModule -->
<g id="edge30" class="edge">
<title>MonthComponent&#45;&gt;MainScreenModule</title>
<path fill="none" stroke="black" d="M3169,-85.01C3169,-90.35 3169,-94.8 3169,-94.8 3169,-94.8 2539.81,-94.8 2539.81,-94.8 2539.81,-94.8 2539.81,-114.65 2539.81,-114.65"/>
<polygon fill="black" stroke="black" points="2536.31,-114.65 2539.81,-124.65 2543.31,-114.65 2536.31,-114.65"/>
</g>
<!-- NavbarComponent -->
<g id="node32" class="node">
<title>NavbarComponent</title>
<polygon fill="#ffffb3" stroke="black" points="3091.03,-84.8 2968.97,-84.8 2968.97,-48.8 3091.03,-48.8 3091.03,-84.8"/>
<text text-anchor="middle" x="3030" y="-62.6" font-family="Times,serif" font-size="14.00">NavbarComponent</text>
</g>
<!-- NavbarComponent&#45;&gt;MainScreenModule -->
<g id="edge31" class="edge">
<title>NavbarComponent&#45;&gt;MainScreenModule</title>
<path fill="none" stroke="black" d="M3021.33,-84.86C3021.33,-89.29 3021.33,-92.8 3021.33,-92.8 3021.33,-92.8 2532.33,-92.8 2532.33,-92.8 2532.33,-92.8 2532.33,-114.75 2532.33,-114.75"/>
<polygon fill="black" stroke="black" points="2528.83,-114.75 2532.33,-124.75 2535.83,-114.75 2528.83,-114.75"/>
</g>
<!-- NewEndComponent -->
<g id="node33" class="node">
<title>NewEndComponent</title>
<polygon fill="#ffffb3" stroke="black" points="2951.31,-84.8 2820.69,-84.8 2820.69,-48.8 2951.31,-48.8 2951.31,-84.8"/>
<text text-anchor="middle" x="2886" y="-62.6" font-family="Times,serif" font-size="14.00">NewEndComponent</text>
</g>
<!-- NewEndComponent&#45;&gt;MainScreenModule -->
<g id="edge32" class="edge">
<title>NewEndComponent&#45;&gt;MainScreenModule</title>
<path fill="none" stroke="black" d="M2832.46,-84.92C2832.46,-87.77 2832.46,-89.8 2832.46,-89.8 2832.46,-89.8 2524.85,-89.8 2524.85,-89.8 2524.85,-89.8 2524.85,-114.56 2524.85,-114.56"/>
<polygon fill="black" stroke="black" points="2521.35,-114.56 2524.85,-124.56 2528.35,-114.56 2521.35,-114.56"/>
</g>
<!-- NewGoodsComponent -->
<g id="node34" class="node">
<title>NewGoodsComponent</title>
<polygon fill="#ffffb3" stroke="black" points="2803.31,-84.8 2658.69,-84.8 2658.69,-48.8 2803.31,-48.8 2803.31,-84.8"/>
<text text-anchor="middle" x="2731" y="-62.6" font-family="Times,serif" font-size="14.00">NewGoodsComponent</text>
</g>
<!-- NewGoodsComponent&#45;&gt;MainScreenModule -->
<g id="edge33" class="edge">
<title>NewGoodsComponent&#45;&gt;MainScreenModule</title>
<path fill="none" stroke="black" d="M2731,-84.88C2731,-86.65 2731,-87.8 2731,-87.8 2731,-87.8 2517.37,-87.8 2517.37,-87.8 2517.37,-87.8 2517.37,-114.79 2517.37,-114.79"/>
<polygon fill="black" stroke="black" points="2513.87,-114.79 2517.37,-124.79 2520.87,-114.79 2513.87,-114.79"/>
</g>
<!-- NewReceiptComponent -->
<g id="node35" class="node">
<title>NewReceiptComponent</title>
<polygon fill="#ffffb3" stroke="black" points="2641.02,-84.8 2490.98,-84.8 2490.98,-48.8 2641.02,-48.8 2641.02,-84.8"/>
<text text-anchor="middle" x="2566" y="-62.6" font-family="Times,serif" font-size="14.00">NewReceiptComponent</text>
</g>
<!-- NewReceiptComponent&#45;&gt;MainScreenModule -->
<g id="edge34" class="edge">
<title>NewReceiptComponent&#45;&gt;MainScreenModule</title>
<path fill="none" stroke="black" d="M2509.89,-84.81C2509.89,-84.81 2509.89,-114.65 2509.89,-114.65"/>
<polygon fill="black" stroke="black" points="2506.39,-114.65 2509.89,-124.65 2513.39,-114.65 2506.39,-114.65"/>
</g>
<!-- OverviewEndComponent -->
<g id="node36" class="node">
<title>OverviewEndComponent</title>
<polygon fill="#ffffb3" stroke="black" points="2472.58,-84.8 2313.42,-84.8 2313.42,-48.8 2472.58,-48.8 2472.58,-84.8"/>
<text text-anchor="middle" x="2393" y="-62.6" font-family="Times,serif" font-size="14.00">OverviewEndComponent</text>
</g>
<!-- OverviewEndComponent&#45;&gt;MainScreenModule -->
<g id="edge35" class="edge">
<title>OverviewEndComponent&#45;&gt;MainScreenModule</title>
<path fill="none" stroke="black" d="M2393,-85.1C2393,-103.07 2393,-127.8 2393,-127.8 2393,-127.8 2492.07,-127.8 2492.07,-127.8"/>
<polygon fill="black" stroke="black" points="2492.07,-131.3 2502.07,-127.8 2492.07,-124.3 2492.07,-131.3"/>
</g>
<!-- OverviewGoodsComponent -->
<g id="node37" class="node">
<title>OverviewGoodsComponent</title>
<polygon fill="#ffffb3" stroke="black" points="2295.58,-84.8 2122.42,-84.8 2122.42,-48.8 2295.58,-48.8 2295.58,-84.8"/>
<text text-anchor="middle" x="2209" y="-62.6" font-family="Times,serif" font-size="14.00">OverviewGoodsComponent</text>
</g>
<!-- OverviewGoodsComponent&#45;&gt;MainScreenModule -->
<g id="edge36" class="edge">
<title>OverviewGoodsComponent&#45;&gt;MainScreenModule</title>
<path fill="none" stroke="black" d="M2209,-85.02C2209,-103.63 2209,-129.8 2209,-129.8 2209,-129.8 2492.18,-129.8 2492.18,-129.8"/>
<polygon fill="black" stroke="black" points="2492.18,-133.3 2502.18,-129.8 2492.18,-126.3 2492.18,-133.3"/>
</g>
<!-- OverviewReceiptComponent -->
<g id="node38" class="node">
<title>OverviewReceiptComponent</title>
<polygon fill="#ffffb3" stroke="black" points="2104.79,-84.8 1925.21,-84.8 1925.21,-48.8 2104.79,-48.8 2104.79,-84.8"/>
<text text-anchor="middle" x="2015" y="-62.6" font-family="Times,serif" font-size="14.00">OverviewReceiptComponent</text>
</g>
<!-- OverviewReceiptComponent&#45;&gt;MainScreenModule -->
<g id="edge37" class="edge">
<title>OverviewReceiptComponent&#45;&gt;MainScreenModule</title>
<path fill="none" stroke="black" d="M2015,-84.91C2015,-104.14 2015,-131.8 2015,-131.8 2015,-131.8 2492.26,-131.8 2492.26,-131.8"/>
<polygon fill="black" stroke="black" points="2492.26,-135.3 2502.26,-131.8 2492.25,-128.3 2492.26,-135.3"/>
</g>
<!-- OverviewSelfComponent -->
<g id="node39" class="node">
<title>OverviewSelfComponent</title>
<polygon fill="#ffffb3" stroke="black" points="1907.57,-84.8 1748.43,-84.8 1748.43,-48.8 1907.57,-48.8 1907.57,-84.8"/>
<text text-anchor="middle" x="1828" y="-62.6" font-family="Times,serif" font-size="14.00">OverviewSelfComponent</text>
</g>
<!-- OverviewSelfComponent&#45;&gt;MainScreenModule -->
<g id="edge38" class="edge">
<title>OverviewSelfComponent&#45;&gt;MainScreenModule</title>
<path fill="none" stroke="black" d="M1828,-85.11C1828,-104.95 1828,-133.8 1828,-133.8 1828,-133.8 2492.12,-133.8 2492.12,-133.8"/>
<polygon fill="black" stroke="black" points="2492.12,-137.3 2502.12,-133.8 2492.12,-130.3 2492.12,-137.3"/>
</g>
<!-- OverviewUserComponent -->
<g id="node40" class="node">
<title>OverviewUserComponent</title>
<polygon fill="#ffffb3" stroke="black" points="1730.45,-84.8 1567.55,-84.8 1567.55,-48.8 1730.45,-48.8 1730.45,-84.8"/>
<text text-anchor="middle" x="1649" y="-62.6" font-family="Times,serif" font-size="14.00">OverviewUserComponent</text>
</g>
<!-- OverviewUserComponent&#45;&gt;MainScreenModule -->
<g id="edge39" class="edge">
<title>OverviewUserComponent&#45;&gt;MainScreenModule</title>
<path fill="none" stroke="black" d="M1649,-84.83C1649,-105.57 1649,-136.8 1649,-136.8 1649,-136.8 2492.25,-136.8 2492.25,-136.8"/>
<polygon fill="black" stroke="black" points="2492.25,-140.3 2502.25,-136.8 2492.25,-133.3 2492.25,-140.3"/>
</g>
<!-- ReceiptComponent -->
<g id="node41" class="node">
<title>ReceiptComponent</title>
<polygon fill="#ffffb3" stroke="black" points="1549.09,-84.8 1424.91,-84.8 1424.91,-48.8 1549.09,-48.8 1549.09,-84.8"/>
<text text-anchor="middle" x="1487" y="-62.6" font-family="Times,serif" font-size="14.00">ReceiptComponent</text>
</g>
<!-- ReceiptComponent&#45;&gt;MainScreenModule -->
<g id="edge40" class="edge">
<title>ReceiptComponent&#45;&gt;MainScreenModule</title>
<path fill="none" stroke="black" d="M1487,-84.97C1487,-106.3 1487,-138.8 1487,-138.8 1487,-138.8 2492.13,-138.8 2492.13,-138.8"/>
<polygon fill="black" stroke="black" points="2492.13,-142.3 2502.13,-138.8 2492.13,-135.3 2492.13,-142.3"/>
</g>
<!-- SelfServiceStandComponent -->
<g id="node42" class="node">
<title>SelfServiceStandComponent</title>
<polygon fill="#ffffb3" stroke="black" points="1406.75,-84.8 1229.25,-84.8 1229.25,-48.8 1406.75,-48.8 1406.75,-84.8"/>
<text text-anchor="middle" x="1318" y="-62.6" font-family="Times,serif" font-size="14.00">SelfServiceStandComponent</text>
</g>
<!-- SelfServiceStandComponent&#45;&gt;MainScreenModule -->
<g id="edge41" class="edge">
<title>SelfServiceStandComponent&#45;&gt;MainScreenModule</title>
<path fill="none" stroke="black" d="M1318,-85.09C1318,-107.01 1318,-140.8 1318,-140.8 1318,-140.8 2492.4,-140.8 2492.4,-140.8"/>
<polygon fill="black" stroke="black" points="2492.4,-144.3 2502.4,-140.8 2492.4,-137.3 2492.4,-144.3"/>
</g>
<!-- SettingsGoodsComponent -->
<g id="node43" class="node">
<title>SettingsGoodsComponent</title>
<polygon fill="#ffffb3" stroke="black" points="1211.5,-84.8 1048.5,-84.8 1048.5,-48.8 1211.5,-48.8 1211.5,-84.8"/>
<text text-anchor="middle" x="1130" y="-62.6" font-family="Times,serif" font-size="14.00">SettingsGoodsComponent</text>
</g>
<!-- SettingsGoodsComponent&#45;&gt;MainScreenModule -->
<g id="edge42" class="edge">
<title>SettingsGoodsComponent&#45;&gt;MainScreenModule</title>
<path fill="none" stroke="black" d="M1130,-84.81C1130,-107.29 1130,-142.8 1130,-142.8 1130,-142.8 2491.98,-142.8 2491.98,-142.8"/>
<polygon fill="black" stroke="black" points="2491.98,-146.3 2501.98,-142.8 2491.98,-139.3 2491.98,-146.3"/>
</g>
<!-- StatisticsComponent -->
<g id="node44" class="node">
<title>StatisticsComponent</title>
<polygon fill="#ffffb3" stroke="black" points="1030.89,-84.8 899.11,-84.8 899.11,-48.8 1030.89,-48.8 1030.89,-84.8"/>
<text text-anchor="middle" x="965" y="-62.6" font-family="Times,serif" font-size="14.00">StatisticsComponent</text>
</g>
<!-- StatisticsComponent&#45;&gt;MainScreenModule -->
<g id="edge43" class="edge">
<title>StatisticsComponent&#45;&gt;MainScreenModule</title>
<path fill="none" stroke="black" d="M965,-85.12C965,-108.46 965,-145.8 965,-145.8 965,-145.8 2492.25,-145.8 2492.25,-145.8"/>
<polygon fill="black" stroke="black" points="2492.25,-149.3 2502.25,-145.8 2492.25,-142.3 2492.25,-149.3"/>
</g>
<!-- UserComponent -->
<g id="node45" class="node">
<title>UserComponent</title>
<polygon fill="#ffffb3" stroke="black" points="880.76,-84.8 773.24,-84.8 773.24,-48.8 880.76,-48.8 880.76,-84.8"/>
<text text-anchor="middle" x="827" y="-62.6" font-family="Times,serif" font-size="14.00">UserComponent</text>
</g>
<!-- UserComponent&#45;&gt;MainScreenModule -->
<g id="edge44" class="edge">
<title>UserComponent&#45;&gt;MainScreenModule</title>
<path fill="none" stroke="black" d="M827,-85.18C827,-109.08 827,-147.8 827,-147.8 827,-147.8 2492.31,-147.8 2492.31,-147.8"/>
<polygon fill="black" stroke="black" points="2492.31,-151.3 2502.31,-147.8 2492.31,-144.3 2492.31,-151.3"/>
</g>
<!-- YearComponent -->
<g id="node46" class="node">
<title>YearComponent</title>
<polygon fill="#ffffb3" stroke="black" points="755.03,-84.8 646.97,-84.8 646.97,-48.8 755.03,-48.8 755.03,-84.8"/>
<text text-anchor="middle" x="701" y="-62.6" font-family="Times,serif" font-size="14.00">YearComponent</text>
</g>
<!-- YearComponent&#45;&gt;MainScreenModule -->
<g id="edge45" class="edge">
<title>YearComponent&#45;&gt;MainScreenModule</title>
<path fill="none" stroke="black" d="M701,-84.81C701,-109.22 701,-149.8 701,-149.8 701,-149.8 2492.34,-149.8 2492.34,-149.8"/>
<polygon fill="black" stroke="black" points="2492.34,-153.3 2502.34,-149.8 2492.34,-146.3 2492.34,-153.3"/>
</g>
<!-- MainScreenRoutesModule -->
<g id="node47" class="node">
<title>MainScreenRoutesModule</title>
<polygon fill="#8dd3c7" stroke="black" points="623.07,-84.8 620.07,-88.8 599.07,-88.8 596.07,-84.8 456.93,-84.8 456.93,-48.8 623.07,-48.8 623.07,-84.8"/>
<text text-anchor="middle" x="540" y="-62.6" font-family="Times,serif" font-size="14.00">MainScreenRoutesModule</text>
</g>
<!-- MainScreenRoutesModule&#45;&gt;MainScreenModule -->
<g id="edge46" class="edge">
<title>MainScreenRoutesModule&#45;&gt;MainScreenModule</title>
<path fill="none" stroke="black" d="M540,-84.83C540,-109.78 540,-151.8 540,-151.8 540,-151.8 2492.3,-151.8 2492.3,-151.8"/>
<polygon fill="black" stroke="black" points="2492.3,-155.3 2502.3,-151.8 2492.3,-148.3 2492.3,-155.3"/>
</g>
</g>
</svg>
