<?xml version="1.0" encoding="UTF-8" standalone="no"?>
<!DOCTYPE svg PUBLIC "-//W3C//DTD SVG 1.1//EN"
 "http://www.w3.org/Graphics/SVG/1.1/DTD/svg11.dtd">
<!-- Generated by graphviz version 2.47.3 (20210619.1520)
 -->
<!-- Title: dependencies Pages: 1 -->
<svg width="4588pt" height="247pt"
 viewBox="0.00 0.00 4588.00 246.80" xmlns="http://www.w3.org/2000/svg" xmlns:xlink="http://www.w3.org/1999/xlink">
<g id="graph0" class="graph" transform="scale(1 1) rotate(0) translate(4 242.8)">
<title>dependencies</title>
<polygon fill="white" stroke="transparent" points="-4,4 -4,-242.8 4584,-242.8 4584,4 -4,4"/>
<text text-anchor="middle" x="2290" y="-8.2" font-family="sans-serif" font-size="14.00">dependencies</text>
<g id="clust1" class="cluster">
<title>cluster_MainScreenModule</title>
<polygon fill="none" stroke="black" stroke-dasharray="1,5" points="8,-32.8 8,-230.8 4572,-230.8 4572,-32.8 8,-32.8"/>
</g>
<g id="clust31" class="cluster">
<title>cluster_MainScreenModule_exports</title>
<polygon fill="none" stroke="black" points="2160,-170.8 2160,-222.8 2585,-222.8 2585,-170.8 2160,-170.8"/>
</g>
<g id="clust2" class="cluster">
<title>cluster_MainScreenModule_declarations</title>
<polygon fill="none" stroke="black" points="206,-40.8 206,-92.8 4564,-92.8 4564,-40.8 206,-40.8"/>
</g>
<g id="clust30" class="cluster">
<title>cluster_MainScreenModule_imports</title>
<polygon fill="none" stroke="black" points="16,-40.8 16,-92.8 198,-92.8 198,-40.8 16,-40.8"/>
</g>
<!-- AddUserSelfComponent -->
<g id="node1" class="node">
<title>AddUserSelfComponent</title>
<polygon fill="#ffffb3" stroke="black" points="4556.41,-84.8 4401.59,-84.8 4401.59,-48.8 4556.41,-48.8 4556.41,-84.8"/>
<text text-anchor="middle" x="4479" y="-62.6" font-family="Times,serif" font-size="14.00">AddUserSelfComponent</text>
</g>
<!-- MainScreenModule -->
<g id="node28" class="node">
<title>MainScreenModule</title>
<polygon fill="#8dd3c7" stroke="black" points="2438.69,-149.8 2435.69,-153.8 2414.69,-153.8 2411.69,-149.8 2311.31,-149.8 2311.31,-113.8 2438.69,-113.8 2438.69,-149.8"/>
<text text-anchor="middle" x="2375" y="-127.6" font-family="Times,serif" font-size="14.00">MainScreenModule</text>
</g>
<!-- AddUserSelfComponent&#45;&gt;MainScreenModule -->
<g id="edge1" class="edge">
<title>AddUserSelfComponent&#45;&gt;MainScreenModule</title>
<path fill="none" stroke="black" d="M4479,-85.12C4479,-108.46 4479,-145.8 4479,-145.8 4479,-145.8 2448.83,-145.8 2448.83,-145.8"/>
<polygon fill="black" stroke="black" points="2448.83,-142.3 2438.83,-145.8 2448.83,-149.3 2448.83,-142.3"/>
</g>
<!-- ChangeGoodsComponent -->
<g id="node2" class="node">
<title>ChangeGoodsComponent</title>
<polygon fill="#ffffb3" stroke="black" points="4383.15,-84.8 4222.85,-84.8 4222.85,-48.8 4383.15,-48.8 4383.15,-84.8"/>
<text text-anchor="middle" x="4303" y="-62.6" font-family="Times,serif" font-size="14.00">ChangeGoodsComponent</text>
</g>
<!-- ChangeGoodsComponent&#45;&gt;MainScreenModule -->
<g id="edge2" class="edge">
<title>ChangeGoodsComponent&#45;&gt;MainScreenModule</title>
<path fill="none" stroke="black" d="M4303,-84.81C4303,-107.29 4303,-142.8 4303,-142.8 4303,-142.8 2448.6,-142.8 2448.6,-142.8"/>
<polygon fill="black" stroke="black" points="2448.6,-139.3 2438.6,-142.8 2448.6,-146.3 2448.6,-139.3"/>
</g>
<!-- ChangeSelfComponent -->
<g id="node3" class="node">
<title>ChangeSelfComponent</title>
<polygon fill="#ffffb3" stroke="black" points="4204.15,-84.8 4057.85,-84.8 4057.85,-48.8 4204.15,-48.8 4204.15,-84.8"/>
<text text-anchor="middle" x="4131" y="-62.6" font-family="Times,serif" font-size="14.00">ChangeSelfComponent</text>
</g>
<!-- ChangeSelfComponent&#45;&gt;MainScreenModule -->
<g id="edge3" class="edge">
<title>ChangeSelfComponent&#45;&gt;MainScreenModule</title>
<path fill="none" stroke="black" d="M4131,-85.09C4131,-107.01 4131,-140.8 4131,-140.8 4131,-140.8 2448.79,-140.8 2448.79,-140.8"/>
<polygon fill="black" stroke="black" points="2448.79,-137.3 2438.79,-140.8 2448.79,-144.3 2448.79,-137.3"/>
</g>
<!-- ChangeUserComponent -->
<g id="node4" class="node">
<title>ChangeUserComponent</title>
<polygon fill="#ffffb3" stroke="black" points="4039.03,-84.8 3888.97,-84.8 3888.97,-48.8 4039.03,-48.8 4039.03,-84.8"/>
<text text-anchor="middle" x="3964" y="-62.6" font-family="Times,serif" font-size="14.00">ChangeUserComponent</text>
</g>
<!-- ChangeUserComponent&#45;&gt;MainScreenModule -->
<g id="edge4" class="edge">
<title>ChangeUserComponent&#45;&gt;MainScreenModule</title>
<path fill="none" stroke="black" d="M3964,-85.08C3964,-106.12 3964,-137.8 3964,-137.8 3964,-137.8 2448.76,-137.8 2448.76,-137.8"/>
<polygon fill="black" stroke="black" points="2448.76,-134.3 2438.76,-137.8 2448.76,-141.3 2448.76,-134.3"/>
</g>
<!-- CreateUserComponent -->
<g id="node5" class="node">
<title>CreateUserComponent</title>
<polygon fill="#ffffb3" stroke="black" points="3871.29,-84.8 3726.71,-84.8 3726.71,-48.8 3871.29,-48.8 3871.29,-84.8"/>
<text text-anchor="middle" x="3799" y="-62.6" font-family="Times,serif" font-size="14.00">CreateUserComponent</text>
</g>
<!-- CreateUserComponent&#45;&gt;MainScreenModule -->
<g id="edge5" class="edge">
<title>CreateUserComponent&#45;&gt;MainScreenModule</title>
<path fill="none" stroke="black" d="M3799,-84.93C3799,-105.37 3799,-135.8 3799,-135.8 3799,-135.8 2448.95,-135.8 2448.95,-135.8"/>
<polygon fill="black" stroke="black" points="2448.95,-132.3 2438.95,-135.8 2448.95,-139.3 2448.95,-132.3"/>
</g>
<!-- EndOfDayComponent -->
<g id="node6" class="node">
<title>EndOfDayComponent</title>
<polygon fill="#ffffb3" stroke="black" points="3708.97,-84.8 3567.03,-84.8 3567.03,-48.8 3708.97,-48.8 3708.97,-84.8"/>
<text text-anchor="middle" x="3638" y="-62.6" font-family="Times,serif" font-size="14.00">EndOfDayComponent</text>
</g>
<!-- EndOfDayComponent&#45;&gt;MainScreenModule -->
<g id="edge6" class="edge">
<title>EndOfDayComponent&#45;&gt;MainScreenModule</title>
<path fill="none" stroke="black" d="M3638,-85.11C3638,-104.95 3638,-133.8 3638,-133.8 3638,-133.8 2448.93,-133.8 2448.93,-133.8"/>
<polygon fill="black" stroke="black" points="2448.93,-130.3 2438.93,-133.8 2448.93,-137.3 2448.93,-130.3"/>
</g>
<!-- EndOfDayPdfComponent -->
<g id="node7" class="node">
<title>EndOfDayPdfComponent</title>
<polygon fill="#ffffb3" stroke="black" points="3548.92,-84.8 3387.08,-84.8 3387.08,-48.8 3548.92,-48.8 3548.92,-84.8"/>
<text text-anchor="middle" x="3468" y="-62.6" font-family="Times,serif" font-size="14.00">EndOfDayPdfComponent</text>
</g>
<!-- EndOfDayPdfComponent&#45;&gt;MainScreenModule -->
<g id="edge7" class="edge">
<title>EndOfDayPdfComponent&#45;&gt;MainScreenModule</title>
<path fill="none" stroke="black" d="M3468,-84.97C3468,-103.89 3468,-130.8 3468,-130.8 3468,-130.8 2448.89,-130.8 2448.89,-130.8"/>
<polygon fill="black" stroke="black" points="2448.89,-127.3 2438.89,-130.8 2448.89,-134.3 2448.89,-127.3"/>
</g>
<!-- FooterComponent -->
<g id="node8" class="node">
<title>FooterComponent</title>
<polygon fill="#ffffb3" stroke="black" points="3368.88,-84.8 3251.12,-84.8 3251.12,-48.8 3368.88,-48.8 3368.88,-84.8"/>
<text text-anchor="middle" x="3310" y="-62.6" font-family="Times,serif" font-size="14.00">FooterComponent</text>
</g>
<!-- FooterComponent&#45;&gt;MainScreenModule -->
<g id="edge8" class="edge">
<title>FooterComponent&#45;&gt;MainScreenModule</title>
<path fill="none" stroke="black" d="M3310,-85.07C3310,-103.36 3310,-128.8 3310,-128.8 3310,-128.8 2448.9,-128.8 2448.9,-128.8"/>
<polygon fill="black" stroke="black" points="2448.9,-125.3 2438.9,-128.8 2448.9,-132.3 2448.9,-125.3"/>
</g>
<!-- GoodsComponent -->
<g id="node9" class="node">
<title>GoodsComponent</title>
<polygon fill="#ffffb3" stroke="black" points="3232.88,-84.8 3115.12,-84.8 3115.12,-48.8 3232.88,-48.8 3232.88,-84.8"/>
<text text-anchor="middle" x="3174" y="-62.6" font-family="Times,serif" font-size="14.00">GoodsComponent</text>
</g>
<!-- GoodsComponent&#45;&gt;MainScreenModule -->
<g id="edge9" class="edge">
<title>GoodsComponent&#45;&gt;MainScreenModule</title>
<path fill="none" stroke="black" d="M3174,-84.82C3174,-102.17 3174,-125.8 3174,-125.8 3174,-125.8 2448.7,-125.8 2448.7,-125.8"/>
<polygon fill="black" stroke="black" points="2448.7,-122.3 2438.7,-125.8 2448.7,-129.3 2448.7,-122.3"/>
</g>
<!-- LogoutComponent -->
<g id="node10" class="node">
<title>LogoutComponent</title>
<polygon fill="#ffffb3" stroke="black" points="3096.78,-84.8 2975.22,-84.8 2975.22,-48.8 3096.78,-48.8 3096.78,-84.8"/>
<text text-anchor="middle" x="3036" y="-62.6" font-family="Times,serif" font-size="14.00">LogoutComponent</text>
</g>
<!-- LogoutComponent&#45;&gt;MainScreenModule -->
<g id="edge10" class="edge">
<title>LogoutComponent&#45;&gt;MainScreenModule</title>
<path fill="none" stroke="black" d="M3036,-84.84C3036,-101.53 3036,-123.8 3036,-123.8 3036,-123.8 2448.68,-123.8 2448.68,-123.8"/>
<polygon fill="black" stroke="black" points="2448.68,-120.3 2438.68,-123.8 2448.68,-127.3 2448.68,-120.3"/>
</g>
<!-- MainMenuComponent -->
<g id="node11" class="node">
<title>MainMenuComponent</title>
<polygon fill="#ffffb3" stroke="black" points="2956.54,-84.8 2813.46,-84.8 2813.46,-48.8 2956.54,-48.8 2956.54,-84.8"/>
<text text-anchor="middle" x="2885" y="-62.6" font-family="Times,serif" font-size="14.00">MainMenuComponent</text>
</g>
<!-- MainMenuComponent&#45;&gt;MainScreenModule -->
<g id="edge11" class="edge">
<title>MainMenuComponent&#45;&gt;MainScreenModule</title>
<path fill="none" stroke="black" d="M2885,-84.81C2885,-100.85 2885,-121.8 2885,-121.8 2885,-121.8 2448.82,-121.8 2448.82,-121.8"/>
<polygon fill="black" stroke="black" points="2448.82,-118.3 2438.82,-121.8 2448.82,-125.3 2448.82,-118.3"/>
</g>
<!-- MonthComponent -->
<g id="node12" class="node">
<title>MonthComponent</title>
<polygon fill="#ffffb3" stroke="black" points="2795.17,-84.8 2676.83,-84.8 2676.83,-48.8 2795.17,-48.8 2795.17,-84.8"/>
<text text-anchor="middle" x="2736" y="-62.6" font-family="Times,serif" font-size="14.00">MonthComponent</text>
</g>
<!-- MonthComponent&#45;&gt;MainScreenModule -->
<g id="edge12" class="edge">
<title>MonthComponent&#45;&gt;MainScreenModule</title>
<path fill="none" stroke="black" d="M2736,-84.99C2736,-99.98 2736,-118.8 2736,-118.8 2736,-118.8 2448.71,-118.8 2448.71,-118.8"/>
<polygon fill="black" stroke="black" points="2448.71,-115.3 2438.71,-118.8 2448.71,-122.3 2448.71,-115.3"/>
</g>
<!-- NavbarComponent -->
<g id="node13" class="node">
<title>NavbarComponent</title>
<polygon fill="#ffffb3" stroke="black" points="2658.03,-84.8 2535.97,-84.8 2535.97,-48.8 2658.03,-48.8 2658.03,-84.8"/>
<text text-anchor="middle" x="2597" y="-62.6" font-family="Times,serif" font-size="14.00">NavbarComponent</text>
</g>
<!-- NavbarComponent&#45;&gt;MainScreenModule -->
<g id="edge13" class="edge">
<title>NavbarComponent&#45;&gt;MainScreenModule</title>
<path fill="none" stroke="black" d="M2556.21,-84.85C2556.21,-99.17 2556.21,-116.8 2556.21,-116.8 2556.21,-116.8 2448.63,-116.8 2448.63,-116.8"/>
<polygon fill="black" stroke="black" points="2448.63,-113.3 2438.63,-116.8 2448.63,-120.3 2448.63,-113.3"/>
</g>
<!-- NewEndComponent -->
<g id="node14" class="node">
<title>NewEndComponent</title>
<polygon fill="#ffffb3" stroke="black" points="2518.31,-84.8 2387.69,-84.8 2387.69,-48.8 2518.31,-48.8 2518.31,-84.8"/>
<text text-anchor="middle" x="2453" y="-62.6" font-family="Times,serif" font-size="14.00">NewEndComponent</text>
</g>
<!-- NewEndComponent&#45;&gt;MainScreenModule -->
<g id="edge14" class="edge">
<title>NewEndComponent&#45;&gt;MainScreenModule</title>
<path fill="none" stroke="black" d="M2413.22,-84.91C2413.22,-84.91 2413.22,-103.79 2413.22,-103.79"/>
<polygon fill="black" stroke="black" points="2409.72,-103.79 2413.22,-113.79 2416.72,-103.79 2409.72,-103.79"/>
</g>
<!-- NewGoodsComponent -->
<g id="node15" class="node">
<title>NewGoodsComponent</title>
<polygon fill="#ffffb3" stroke="black" points="2370.31,-84.8 2225.69,-84.8 2225.69,-48.8 2370.31,-48.8 2370.31,-84.8"/>
<text text-anchor="middle" x="2298" y="-62.6" font-family="Times,serif" font-size="14.00">NewGoodsComponent</text>
</g>
<!-- NewGoodsComponent&#45;&gt;MainScreenModule -->
<g id="edge15" class="edge">
<title>NewGoodsComponent&#45;&gt;MainScreenModule</title>
<path fill="none" stroke="black" d="M2340.78,-84.91C2340.78,-84.91 2340.78,-103.79 2340.78,-103.79"/>
<polygon fill="black" stroke="black" points="2337.28,-103.79 2340.78,-113.79 2344.28,-103.79 2337.28,-103.79"/>
</g>
<!-- NewReceiptComponent -->
<g id="node16" class="node">
<title>NewReceiptComponent</title>
<polygon fill="#ffffb3" stroke="black" points="2208.02,-84.8 2057.98,-84.8 2057.98,-48.8 2208.02,-48.8 2208.02,-84.8"/>
<text text-anchor="middle" x="2133" y="-62.6" font-family="Times,serif" font-size="14.00">NewReceiptComponent</text>
</g>
<!-- NewReceiptComponent&#45;&gt;MainScreenModule -->
<g id="edge16" class="edge">
<title>NewReceiptComponent&#45;&gt;MainScreenModule</title>
<path fill="none" stroke="black" d="M2188.12,-84.85C2188.12,-99.17 2188.12,-116.8 2188.12,-116.8 2188.12,-116.8 2301.21,-116.8 2301.21,-116.8"/>
<polygon fill="black" stroke="black" points="2301.21,-120.3 2311.21,-116.8 2301.21,-113.3 2301.21,-120.3"/>
</g>
<!-- OverviewEndComponent -->
<g id="node17" class="node">
<title>OverviewEndComponent</title>
<polygon fill="#ffffb3" stroke="black" points="2039.58,-84.8 1880.42,-84.8 1880.42,-48.8 2039.58,-48.8 2039.58,-84.8"/>
<text text-anchor="middle" x="1960" y="-62.6" font-family="Times,serif" font-size="14.00">OverviewEndComponent</text>
</g>
<!-- OverviewEndComponent&#45;&gt;MainScreenModule -->
<g id="edge17" class="edge">
<title>OverviewEndComponent&#45;&gt;MainScreenModule</title>
<path fill="none" stroke="black" d="M1960,-84.99C1960,-99.98 1960,-118.8 1960,-118.8 1960,-118.8 2301.07,-118.8 2301.07,-118.8"/>
<polygon fill="black" stroke="black" points="2301.07,-122.3 2311.07,-118.8 2301.07,-115.3 2301.07,-122.3"/>
</g>
<!-- OverviewGoodsComponent -->
<g id="node18" class="node">
<title>OverviewGoodsComponent</title>
<polygon fill="#ffffb3" stroke="black" points="1862.58,-84.8 1689.42,-84.8 1689.42,-48.8 1862.58,-48.8 1862.58,-84.8"/>
<text text-anchor="middle" x="1776" y="-62.6" font-family="Times,serif" font-size="14.00">OverviewGoodsComponent</text>
</g>
<!-- OverviewGoodsComponent&#45;&gt;MainScreenModule -->
<g id="edge18" class="edge">
<title>OverviewGoodsComponent&#45;&gt;MainScreenModule</title>
<path fill="none" stroke="black" d="M1776,-84.81C1776,-100.85 1776,-121.8 1776,-121.8 1776,-121.8 2301.18,-121.8 2301.18,-121.8"/>
<polygon fill="black" stroke="black" points="2301.18,-125.3 2311.18,-121.8 2301.18,-118.3 2301.18,-125.3"/>
</g>
<!-- OverviewReceiptComponent -->
<g id="node19" class="node">
<title>OverviewReceiptComponent</title>
<polygon fill="#ffffb3" stroke="black" points="1671.79,-84.8 1492.21,-84.8 1492.21,-48.8 1671.79,-48.8 1671.79,-84.8"/>
<text text-anchor="middle" x="1582" y="-62.6" font-family="Times,serif" font-size="14.00">OverviewReceiptComponent</text>
</g>
<!-- OverviewReceiptComponent&#45;&gt;MainScreenModule -->
<g id="edge19" class="edge">
<title>OverviewReceiptComponent&#45;&gt;MainScreenModule</title>
<path fill="none" stroke="black" d="M1582,-84.84C1582,-101.53 1582,-123.8 1582,-123.8 1582,-123.8 2301.11,-123.8 2301.11,-123.8"/>
<polygon fill="black" stroke="black" points="2301.11,-127.3 2311.11,-123.8 2301.11,-120.3 2301.11,-127.3"/>
</g>
<!-- OverviewSelfComponent -->
<g id="node20" class="node">
<title>OverviewSelfComponent</title>
<polygon fill="#ffffb3" stroke="black" points="1474.57,-84.8 1315.43,-84.8 1315.43,-48.8 1474.57,-48.8 1474.57,-84.8"/>
<text text-anchor="middle" x="1395" y="-62.6" font-family="Times,serif" font-size="14.00">OverviewSelfComponent</text>
</g>
<!-- OverviewSelfComponent&#45;&gt;MainScreenModule -->
<g id="edge20" class="edge">
<title>OverviewSelfComponent&#45;&gt;MainScreenModule</title>
<path fill="none" stroke="black" d="M1395,-84.82C1395,-102.17 1395,-125.8 1395,-125.8 1395,-125.8 2301.08,-125.8 2301.08,-125.8"/>
<polygon fill="black" stroke="black" points="2301.08,-129.3 2311.08,-125.8 2301.08,-122.3 2301.08,-129.3"/>
</g>
<!-- OverviewUserComponent -->
<g id="node21" class="node">
<title>OverviewUserComponent</title>
<polygon fill="#ffffb3" stroke="black" points="1297.45,-84.8 1134.55,-84.8 1134.55,-48.8 1297.45,-48.8 1297.45,-84.8"/>
<text text-anchor="middle" x="1216" y="-62.6" font-family="Times,serif" font-size="14.00">OverviewUserComponent</text>
</g>
<!-- OverviewUserComponent&#45;&gt;MainScreenModule -->
<g id="edge21" class="edge">
<title>OverviewUserComponent&#45;&gt;MainScreenModule</title>
<path fill="none" stroke="black" d="M1216,-85.07C1216,-103.36 1216,-128.8 1216,-128.8 1216,-128.8 2301.04,-128.8 2301.04,-128.8"/>
<polygon fill="black" stroke="black" points="2301.04,-132.3 2311.04,-128.8 2301.04,-125.3 2301.04,-132.3"/>
</g>
<!-- ReceiptComponent -->
<g id="node22" class="node">
<title>ReceiptComponent</title>
<polygon fill="#ffffb3" stroke="black" points="1116.09,-84.8 991.91,-84.8 991.91,-48.8 1116.09,-48.8 1116.09,-84.8"/>
<text text-anchor="middle" x="1054" y="-62.6" font-family="Times,serif" font-size="14.00">ReceiptComponent</text>
</g>
<!-- ReceiptComponent&#45;&gt;MainScreenModule -->
<g id="edge22" class="edge">
<title>ReceiptComponent&#45;&gt;MainScreenModule</title>
<path fill="none" stroke="black" d="M1054,-84.97C1054,-103.89 1054,-130.8 1054,-130.8 1054,-130.8 2301.29,-130.8 2301.29,-130.8"/>
<polygon fill="black" stroke="black" points="2301.29,-134.3 2311.29,-130.8 2301.29,-127.3 2301.29,-134.3"/>
</g>
<!-- SelfServiceStandComponent -->
<g id="node23" class="node">
<title>SelfServiceStandComponent</title>
<polygon fill="#ffffb3" stroke="black" points="973.75,-84.8 796.25,-84.8 796.25,-48.8 973.75,-48.8 973.75,-84.8"/>
<text text-anchor="middle" x="885" y="-62.6" font-family="Times,serif" font-size="14.00">SelfServiceStandComponent</text>
</g>
<!-- SelfServiceStandComponent&#45;&gt;MainScreenModule -->
<g id="edge23" class="edge">
<title>SelfServiceStandComponent&#45;&gt;MainScreenModule</title>
<path fill="none" stroke="black" d="M885,-85.11C885,-104.95 885,-133.8 885,-133.8 885,-133.8 2300.98,-133.8 2300.98,-133.8"/>
<polygon fill="black" stroke="black" points="2300.98,-137.3 2310.98,-133.8 2300.98,-130.3 2300.98,-137.3"/>
</g>
<!-- SettingsGoodsComponent -->
<g id="node24" class="node">
<title>SettingsGoodsComponent</title>
<polygon fill="#ffffb3" stroke="black" points="778.5,-84.8 615.5,-84.8 615.5,-48.8 778.5,-48.8 778.5,-84.8"/>
<text text-anchor="middle" x="697" y="-62.6" font-family="Times,serif" font-size="14.00">SettingsGoodsComponent</text>
</g>
<!-- SettingsGoodsComponent&#45;&gt;MainScreenModule -->
<g id="edge24" class="edge">
<title>SettingsGoodsComponent&#45;&gt;MainScreenModule</title>
<path fill="none" stroke="black" d="M697,-84.93C697,-105.37 697,-135.8 697,-135.8 697,-135.8 2301.27,-135.8 2301.27,-135.8"/>
<polygon fill="black" stroke="black" points="2301.27,-139.3 2311.27,-135.8 2301.27,-132.3 2301.27,-139.3"/>
</g>
<!-- StatisticsComponent -->
<g id="node25" class="node">
<title>StatisticsComponent</title>
<polygon fill="#ffffb3" stroke="black" points="597.89,-84.8 466.11,-84.8 466.11,-48.8 597.89,-48.8 597.89,-84.8"/>
<text text-anchor="middle" x="532" y="-62.6" font-family="Times,serif" font-size="14.00">StatisticsComponent</text>
</g>
<!-- StatisticsComponent&#45;&gt;MainScreenModule -->
<g id="edge25" class="edge">
<title>StatisticsComponent&#45;&gt;MainScreenModule</title>
<path fill="none" stroke="black" d="M532,-85.08C532,-106.12 532,-137.8 532,-137.8 532,-137.8 2301.29,-137.8 2301.29,-137.8"/>
<polygon fill="black" stroke="black" points="2301.29,-141.3 2311.29,-137.8 2301.29,-134.3 2301.29,-141.3"/>
</g>
<!-- UserComponent -->
<g id="node26" class="node">
<title>UserComponent</title>
<polygon fill="#ffffb3" stroke="black" points="447.76,-84.8 340.24,-84.8 340.24,-48.8 447.76,-48.8 447.76,-84.8"/>
<text text-anchor="middle" x="394" y="-62.6" font-family="Times,serif" font-size="14.00">UserComponent</text>
</g>
<!-- UserComponent&#45;&gt;MainScreenModule -->
<g id="edge26" class="edge">
<title>UserComponent&#45;&gt;MainScreenModule</title>
<path fill="none" stroke="black" d="M394,-85.09C394,-107.01 394,-140.8 394,-140.8 394,-140.8 2301.33,-140.8 2301.33,-140.8"/>
<polygon fill="black" stroke="black" points="2301.33,-144.3 2311.33,-140.8 2301.33,-137.3 2301.33,-144.3"/>
</g>
<!-- YearComponent -->
<g id="node27" class="node">
<title>YearComponent</title>
<polygon fill="#ffffb3" stroke="black" points="322.03,-84.8 213.97,-84.8 213.97,-48.8 322.03,-48.8 322.03,-84.8"/>
<text text-anchor="middle" x="268" y="-62.6" font-family="Times,serif" font-size="14.00">YearComponent</text>
</g>
<!-- YearComponent&#45;&gt;MainScreenModule -->
<g id="edge27" class="edge">
<title>YearComponent&#45;&gt;MainScreenModule</title>
<path fill="none" stroke="black" d="M268,-84.81C268,-107.29 268,-142.8 268,-142.8 268,-142.8 2301.37,-142.8 2301.37,-142.8"/>
<polygon fill="black" stroke="black" points="2301.37,-146.3 2311.37,-142.8 2301.37,-139.3 2301.37,-146.3"/>
</g>
<!-- FooterComponent  -->
<g id="node30" class="node">
<title>FooterComponent </title>
<polygon fill="#fb8072" stroke="black" points="2576.88,-214.8 2455.12,-214.8 2455.12,-178.8 2576.88,-178.8 2576.88,-214.8"/>
<text text-anchor="middle" x="2516" y="-192.6" font-family="Times,serif" font-size="14.00">FooterComponent </text>
</g>
<!-- MainScreenModule&#45;&gt;FooterComponent  -->
<g id="edge29" class="edge">
<title>MainScreenModule&#45;&gt;FooterComponent </title>
<path fill="none" stroke="black" stroke-dasharray="5,2" d="M2438.7,-147.8C2463.79,-147.8 2486.73,-147.8 2486.73,-147.8 2486.73,-147.8 2486.73,-168.55 2486.73,-168.55"/>
<polygon fill="black" stroke="black" points="2483.23,-168.55 2486.73,-178.55 2490.23,-168.55 2483.23,-168.55"/>
</g>
<!-- LogoutComponent  -->
<g id="node31" class="node">
<title>LogoutComponent </title>
<polygon fill="#fb8072" stroke="black" points="2437.78,-214.8 2312.22,-214.8 2312.22,-178.8 2437.78,-178.8 2437.78,-214.8"/>
<text text-anchor="middle" x="2375" y="-192.6" font-family="Times,serif" font-size="14.00">LogoutComponent </text>
</g>
<!-- MainScreenModule&#45;&gt;LogoutComponent  -->
<g id="edge30" class="edge">
<title>MainScreenModule&#45;&gt;LogoutComponent </title>
<path fill="none" stroke="black" stroke-dasharray="5,2" d="M2375,-149.91C2375,-149.91 2375,-168.79 2375,-168.79"/>
<polygon fill="black" stroke="black" points="2371.5,-168.79 2375,-178.79 2378.5,-168.79 2371.5,-168.79"/>
</g>
<!-- NavbarComponent  -->
<g id="node32" class="node">
<title>NavbarComponent </title>
<polygon fill="#fb8072" stroke="black" points="2294.03,-214.8 2167.97,-214.8 2167.97,-178.8 2294.03,-178.8 2294.03,-214.8"/>
<text text-anchor="middle" x="2231" y="-192.6" font-family="Times,serif" font-size="14.00">NavbarComponent </text>
</g>
<!-- MainScreenModule&#45;&gt;NavbarComponent  -->
<g id="edge31" class="edge">
<title>MainScreenModule&#45;&gt;NavbarComponent </title>
<path fill="none" stroke="black" stroke-dasharray="5,2" d="M2311.41,-147.8C2284.79,-147.8 2259.93,-147.8 2259.93,-147.8 2259.93,-147.8 2259.93,-168.55 2259.93,-168.55"/>
<polygon fill="black" stroke="black" points="2256.43,-168.55 2259.93,-178.55 2263.43,-168.55 2256.43,-168.55"/>
</g>
<!-- MainScreenRoutesModule -->
<g id="node29" class="node">
<title>MainScreenRoutesModule</title>
<polygon fill="#8dd3c7" stroke="black" points="190.07,-84.8 187.07,-88.8 166.07,-88.8 163.07,-84.8 23.93,-84.8 23.93,-48.8 190.07,-48.8 190.07,-84.8"/>
<text text-anchor="middle" x="107" y="-62.6" font-family="Times,serif" font-size="14.00">MainScreenRoutesModule</text>
</g>
<!-- MainScreenRoutesModule&#45;&gt;MainScreenModule -->
<g id="edge28" class="edge">
<title>MainScreenRoutesModule&#45;&gt;MainScreenModule</title>
<path fill="none" stroke="black" d="M107,-85.12C107,-108.46 107,-145.8 107,-145.8 107,-145.8 2301.38,-145.8 2301.38,-145.8"/>
<polygon fill="black" stroke="black" points="2301.38,-149.3 2311.38,-145.8 2301.38,-142.3 2301.38,-149.3"/>
</g>
</g>
</svg>
