<?xml version="1.0" encoding="UTF-8" standalone="no"?>
<!DOCTYPE svg PUBLIC "-//W3C//DTD SVG 1.1//EN"
 "http://www.w3.org/Graphics/SVG/1.1/DTD/svg11.dtd">
<!-- Generated by graphviz version 2.47.3 (20210619.1520)
 -->
<!-- Title: dependencies Pages: 1 -->
<svg width="1917pt" height="174pt"
 viewBox="0.00 0.00 1917.00 173.80" xmlns="http://www.w3.org/2000/svg" xmlns:xlink="http://www.w3.org/1999/xlink">
<g id="graph0" class="graph" transform="scale(1 1) rotate(0) translate(4 169.8)">
<title>dependencies</title>
<polygon fill="white" stroke="transparent" points="-4,4 -4,-169.8 1913,-169.8 1913,4 -4,4"/>
<text text-anchor="middle" x="954.5" y="-8.2" font-family="sans-serif" font-size="14.00">dependencies</text>
<g id="clust1" class="cluster">
<title>cluster_LoginAndRegistrationModuleModule</title>
<polygon fill="none" stroke="black" stroke-dasharray="1,5" points="8,-32.8 8,-157.8 1901,-157.8 1901,-32.8 8,-32.8"/>
</g>
<g id="clust13" class="cluster">
<title>cluster_LoginAndRegistrationModuleModule_imports</title>
<polygon fill="none" stroke="black" points="1653,-40.8 1653,-92.8 1893,-92.8 1893,-40.8 1653,-40.8"/>
</g>
<g id="clust2" class="cluster">
<title>cluster_LoginAndRegistrationModuleModule_declarations</title>
<polygon fill="none" stroke="black" points="16,-40.8 16,-92.8 1645,-92.8 1645,-40.8 16,-40.8"/>
</g>
<!-- ContactComponent -->
<g id="node1" class="node">
<title>ContactComponent</title>
<polygon fill="#ffffb3" stroke="black" points="1637.38,-84.8 1512.62,-84.8 1512.62,-48.8 1637.38,-48.8 1637.38,-84.8"/>
<text text-anchor="middle" x="1575" y="-62.6" font-family="Times,serif" font-size="14.00">ContactComponent</text>
</g>
<!-- LoginAndRegistrationModuleModule -->
<g id="node11" class="node">
<title>LoginAndRegistrationModuleModule</title>
<polygon fill="#8dd3c7" stroke="black" points="1098.58,-149.8 1095.58,-153.8 1074.58,-153.8 1071.58,-149.8 869.42,-149.8 869.42,-113.8 1098.58,-113.8 1098.58,-149.8"/>
<text text-anchor="middle" x="984" y="-127.6" font-family="Times,serif" font-size="14.00">LoginAndRegistrationModuleModule</text>
</g>
<!-- ContactComponent&#45;&gt;LoginAndRegistrationModuleModule -->
<g id="edge1" class="edge">
<title>ContactComponent&#45;&gt;LoginAndRegistrationModuleModule</title>
<path fill="none" stroke="black" d="M1575,-84.93C1575,-105.37 1575,-135.8 1575,-135.8 1575,-135.8 1108.65,-135.8 1108.65,-135.8"/>
<polygon fill="black" stroke="black" points="1108.65,-132.3 1098.65,-135.8 1108.65,-139.3 1108.65,-132.3"/>
</g>
<!-- DataProtectionComponent -->
<g id="node2" class="node">
<title>DataProtectionComponent</title>
<polygon fill="#ffffb3" stroke="black" points="1494.8,-84.8 1329.2,-84.8 1329.2,-48.8 1494.8,-48.8 1494.8,-84.8"/>
<text text-anchor="middle" x="1412" y="-62.6" font-family="Times,serif" font-size="14.00">DataProtectionComponent</text>
</g>
<!-- DataProtectionComponent&#45;&gt;LoginAndRegistrationModuleModule -->
<g id="edge2" class="edge">
<title>DataProtectionComponent&#45;&gt;LoginAndRegistrationModuleModule</title>
<path fill="none" stroke="black" d="M1412,-85.07C1412,-103.36 1412,-128.8 1412,-128.8 1412,-128.8 1108.7,-128.8 1108.7,-128.8"/>
<polygon fill="black" stroke="black" points="1108.7,-125.3 1098.7,-128.8 1108.7,-132.3 1108.7,-125.3"/>
</g>
<!-- FooterComponent -->
<g id="node3" class="node">
<title>FooterComponent</title>
<polygon fill="#ffffb3" stroke="black" points="1310.88,-84.8 1193.12,-84.8 1193.12,-48.8 1310.88,-48.8 1310.88,-84.8"/>
<text text-anchor="middle" x="1252" y="-62.6" font-family="Times,serif" font-size="14.00">FooterComponent</text>
</g>
<!-- FooterComponent&#45;&gt;LoginAndRegistrationModuleModule -->
<g id="edge3" class="edge">
<title>FooterComponent&#45;&gt;LoginAndRegistrationModuleModule</title>
<path fill="none" stroke="black" d="M1252,-84.81C1252,-100.85 1252,-121.8 1252,-121.8 1252,-121.8 1108.82,-121.8 1108.82,-121.8"/>
<polygon fill="black" stroke="black" points="1108.82,-118.3 1098.82,-121.8 1108.82,-125.3 1108.82,-118.3"/>
</g>
<!-- FormComponent -->
<g id="node4" class="node">
<title>FormComponent</title>
<polygon fill="#ffffb3" stroke="black" points="1174.67,-84.8 1063.33,-84.8 1063.33,-48.8 1174.67,-48.8 1174.67,-84.8"/>
<text text-anchor="middle" x="1119" y="-62.6" font-family="Times,serif" font-size="14.00">FormComponent</text>
</g>
<!-- FormComponent&#45;&gt;LoginAndRegistrationModuleModule -->
<g id="edge4" class="edge">
<title>FormComponent&#45;&gt;LoginAndRegistrationModuleModule</title>
<path fill="none" stroke="black" d="M1080.85,-84.91C1080.85,-84.91 1080.85,-103.79 1080.85,-103.79"/>
<polygon fill="black" stroke="black" points="1077.35,-103.79 1080.85,-113.79 1084.35,-103.79 1077.35,-103.79"/>
</g>
<!-- ImprintComponent -->
<g id="node5" class="node">
<title>ImprintComponent</title>
<polygon fill="#ffffb3" stroke="black" points="1045.83,-84.8 922.17,-84.8 922.17,-48.8 1045.83,-48.8 1045.83,-84.8"/>
<text text-anchor="middle" x="984" y="-62.6" font-family="Times,serif" font-size="14.00">ImprintComponent</text>
</g>
<!-- ImprintComponent&#45;&gt;LoginAndRegistrationModuleModule -->
<g id="edge5" class="edge">
<title>ImprintComponent&#45;&gt;LoginAndRegistrationModuleModule</title>
<path fill="none" stroke="black" d="M984,-84.91C984,-84.91 984,-103.79 984,-103.79"/>
<polygon fill="black" stroke="black" points="980.5,-103.79 984,-113.79 987.5,-103.79 980.5,-103.79"/>
</g>
<!-- LoginAndRegistrationComponent -->
<g id="node6" class="node">
<title>LoginAndRegistrationComponent</title>
<polygon fill="#ffffb3" stroke="black" points="904.82,-84.8 697.18,-84.8 697.18,-48.8 904.82,-48.8 904.82,-84.8"/>
<text text-anchor="middle" x="801" y="-62.6" font-family="Times,serif" font-size="14.00">LoginAndRegistrationComponent</text>
</g>
<!-- LoginAndRegistrationComponent&#45;&gt;LoginAndRegistrationModuleModule -->
<g id="edge6" class="edge">
<title>LoginAndRegistrationComponent&#45;&gt;LoginAndRegistrationModuleModule</title>
<path fill="none" stroke="black" d="M887.06,-84.91C887.06,-84.91 887.06,-103.79 887.06,-103.79"/>
<polygon fill="black" stroke="black" points="883.56,-103.79 887.06,-113.79 890.56,-103.79 883.56,-103.79"/>
</g>
<!-- LoginFormComponent -->
<g id="node7" class="node">
<title>LoginFormComponent</title>
<polygon fill="#ffffb3" stroke="black" points="679.61,-84.8 534.39,-84.8 534.39,-48.8 679.61,-48.8 679.61,-84.8"/>
<text text-anchor="middle" x="607" y="-62.6" font-family="Times,serif" font-size="14.00">LoginFormComponent</text>
</g>
<!-- LoginFormComponent&#45;&gt;LoginAndRegistrationModuleModule -->
<g id="edge7" class="edge">
<title>LoginFormComponent&#45;&gt;LoginAndRegistrationModuleModule</title>
<path fill="none" stroke="black" d="M607,-84.81C607,-100.85 607,-121.8 607,-121.8 607,-121.8 859.35,-121.8 859.35,-121.8"/>
<polygon fill="black" stroke="black" points="859.35,-125.3 869.35,-121.8 859.35,-118.3 859.35,-125.3"/>
</g>
<!-- LogoComponent -->
<g id="node8" class="node">
<title>LogoComponent</title>
<polygon fill="#ffffb3" stroke="black" points="516.39,-84.8 405.61,-84.8 405.61,-48.8 516.39,-48.8 516.39,-84.8"/>
<text text-anchor="middle" x="461" y="-62.6" font-family="Times,serif" font-size="14.00">LogoComponent</text>
</g>
<!-- LogoComponent&#45;&gt;LoginAndRegistrationModuleModule -->
<g id="edge8" class="edge">
<title>LogoComponent&#45;&gt;LoginAndRegistrationModuleModule</title>
<path fill="none" stroke="black" d="M461,-85.07C461,-103.36 461,-128.8 461,-128.8 461,-128.8 859.23,-128.8 859.23,-128.8"/>
<polygon fill="black" stroke="black" points="859.23,-132.3 869.23,-128.8 859.23,-125.3 859.23,-132.3"/>
</g>
<!-- PasswordResetComponent -->
<g id="node9" class="node">
<title>PasswordResetComponent</title>
<polygon fill="#ffffb3" stroke="black" points="388.09,-84.8 221.91,-84.8 221.91,-48.8 388.09,-48.8 388.09,-84.8"/>
<text text-anchor="middle" x="305" y="-62.6" font-family="Times,serif" font-size="14.00">PasswordResetComponent</text>
</g>
<!-- PasswordResetComponent&#45;&gt;LoginAndRegistrationModuleModule -->
<g id="edge9" class="edge">
<title>PasswordResetComponent&#45;&gt;LoginAndRegistrationModuleModule</title>
<path fill="none" stroke="black" d="M305,-84.93C305,-105.37 305,-135.8 305,-135.8 305,-135.8 859.2,-135.8 859.2,-135.8"/>
<polygon fill="black" stroke="black" points="859.2,-139.3 869.2,-135.8 859.2,-132.3 859.2,-139.3"/>
</g>
<!-- RegistrationFormComponent -->
<g id="node10" class="node">
<title>RegistrationFormComponent</title>
<polygon fill="#ffffb3" stroke="black" points="204.1,-84.8 23.9,-84.8 23.9,-48.8 204.1,-48.8 204.1,-84.8"/>
<text text-anchor="middle" x="114" y="-62.6" font-family="Times,serif" font-size="14.00">RegistrationFormComponent</text>
</g>
<!-- RegistrationFormComponent&#45;&gt;LoginAndRegistrationModuleModule -->
<g id="edge10" class="edge">
<title>RegistrationFormComponent&#45;&gt;LoginAndRegistrationModuleModule</title>
<path fill="none" stroke="black" d="M114,-84.81C114,-107.29 114,-142.8 114,-142.8 114,-142.8 859.37,-142.8 859.37,-142.8"/>
<polygon fill="black" stroke="black" points="859.37,-146.3 869.37,-142.8 859.37,-139.3 859.37,-146.3"/>
</g>
<!-- LoginAndRegistrationRoutesModule -->
<g id="node12" class="node">
<title>LoginAndRegistrationRoutesModule</title>
<polygon fill="#8dd3c7" stroke="black" points="1885.42,-84.8 1882.42,-88.8 1861.42,-88.8 1858.42,-84.8 1660.58,-84.8 1660.58,-48.8 1885.42,-48.8 1885.42,-84.8"/>
<text text-anchor="middle" x="1773" y="-62.6" font-family="Times,serif" font-size="14.00">LoginAndRegistrationRoutesModule</text>
</g>
<!-- LoginAndRegistrationRoutesModule&#45;&gt;LoginAndRegistrationModuleModule -->
<g id="edge11" class="edge">
<title>LoginAndRegistrationRoutesModule&#45;&gt;LoginAndRegistrationModuleModule</title>
<path fill="none" stroke="black" d="M1773,-84.81C1773,-107.29 1773,-142.8 1773,-142.8 1773,-142.8 1108.73,-142.8 1108.73,-142.8"/>
<polygon fill="black" stroke="black" points="1108.73,-139.3 1098.73,-142.8 1108.73,-146.3 1108.73,-139.3"/>
</g>
</g>
</svg>
